<?xml version="1.0" encoding="UTF-8" standalone="no"?>
<!-- Uploaded to: SVG Repo, www.svgrepo.com, Generator: SVG Repo Mixer Tools -->

<svg
   width="800px"
   height="800px"
   viewBox="0 0 48 48"
   version="1.1"
   id="svg11"
   sodipodi:docname="callstack.svg"
   inkscape:version="1.2.2 (b0a8486541, 2022-12-01)"
   xmlns:inkscape="http://www.inkscape.org/namespaces/inkscape"
   xmlns:sodipodi="http://sodipodi.sourceforge.net/DTD/sodipodi-0.dtd"
   xmlns="http://www.w3.org/2000/svg"
   xmlns:svg="http://www.w3.org/2000/svg"
   xmlns:rdf="http://www.w3.org/1999/02/22-rdf-syntax-ns#"
   xmlns:cc="http://creativecommons.org/ns#"
   xmlns:dc="http://purl.org/dc/elements/1.1/">
  <defs
     id="defs15" />
  <sodipodi:namedview
     id="namedview13"
     pagecolor="#505050"
     bordercolor="#eeeeee"
     borderopacity="1"
     inkscape:showpageshadow="0"
     inkscape:pageopacity="0"
     inkscape:pagecheckerboard="0"
     inkscape:deskcolor="#505050"
     showgrid="false"
     inkscape:zoom="1.28375"
     inkscape:cx="348.9776"
     inkscape:cy="400.77897"
     inkscape:window-width="2494"
     inkscape:window-height="1371"
     inkscape:window-x="66"
     inkscape:window-y="32"
     inkscape:window-maximized="1"
     inkscape:current-layer="svg11" />
  <title
     id="title2">tree-structure</title>
  <g
     id="Layer_2"
     data-name="Layer 2">
    <g
       id="invisible_box"
       data-name="invisible box">
      <rect
         width="48"
         height="48"
         fill="none"
         id="rect4" />
    </g>
    <g
       id="Q3_icons"
       data-name="Q3 icons">
      <path
         d="M26,30H42a2,2,0,0,0,2-2V20a2,2,0,0,0-2-2H26a2,2,0,0,0-2,2v2H16V14h6a2,2,0,0,0,2-2V4a2,2,0,0,0-2-2H6A2,2,0,0,0,4,4v8a2,2,0,0,0,2,2h6V40a2,2,0,0,0,2,2H24v2a2,2,0,0,0,2,2H42a2,2,0,0,0,2-2V36a2,2,0,0,0-2-2H26a2,2,0,0,0-2,2v2H16V26h8v2A2,2,0,0,0,26,30Zm2-8H40v4H28ZM8,6H20v4H8ZM28,38H40v4H28Z"
         id="path7"
         style="fill:#ffffff;fill-opacity:1" />
    </g>
  </g>
  <metadata
     id="metadata870">
    <rdf:RDF>
      <cc:Work
         rdf:about="">
        <dc:title>tree-structure</dc:title>
      </cc:Work>
    </rdf:RDF>
  </metadata>
</svg>
