<?xml version="1.0" encoding="UTF-8" standalone="no"?>
<svg
   viewBox="0 0 10 10"
   version="1.1"
   id="svg10"
   sodipodi:docname="debug.svg"
   inkscape:version="1.2.2 (b0a8486541, 2022-12-01)"
   xmlns:inkscape="http://www.inkscape.org/namespaces/inkscape"
   xmlns:sodipodi="http://sodipodi.sourceforge.net/DTD/sodipodi-0.dtd"
   xmlns="http://www.w3.org/2000/svg"
   xmlns:svg="http://www.w3.org/2000/svg">
  <defs
     id="defs14" />
  <sodipodi:namedview
     id="namedview12"
     pagecolor="#505050"
     bordercolor="#eeeeee"
     borderopacity="1"
     inkscape:showpageshadow="0"
     inkscape:pageopacity="0"
     inkscape:pagecheckerboard="0"
     inkscape:deskcolor="#505050"
     showgrid="true"
     inkscape:zoom="90.509668"
     inkscape:cx="1.9832135"
     inkscape:cy="4.5022815"
     inkscape:window-width="2494"
     inkscape:window-height="1371"
     inkscape:window-x="66"
     inkscape:window-y="32"
     inkscape:window-maximized="1"
     inkscape:current-layer="svg10">
    <inkscape:grid
       type="xygrid"
       id="grid631" />
  </sodipodi:namedview>
  <path
     id="rect2"
     style="fill:#ffffff;fill-opacity:1;stroke-width:1.79857"
     d="M 4.9746094 0.99414062 C 2.6483663 0.99414062 2.1010813 3.3703608 2.5625 4.5742188 C 3.0299124 5.7531867 3.7332851 5.9215273 3.9375 6.9785156 C 4.2809943 7.043992 4.6472822 7.0800781 5.0273438 7.0800781 C 5.3704681 7.0800781 5.701319 7.0499369 6.015625 6.9960938 C 6.2189632 5.9360418 7.0234146 5.9489061 7.6875 4.5664062 C 8.1347598 3.5063704 7.40939 0.99414063 5.0390625 0.99414062 L 4.9746094 0.99414062 z M 5.0136719 3.6230469 C 5.5104593 3.6230469 5.9003906 5.0355562 5.9003906 5.8964844 C 5.9348274 6.1334674 5.6827686 7.0274414 5.5019531 6.4941406 C 5.2396558 5.3109382 4.7050276 5.2970718 4.4980469 6.4433594 C 4.2209554 7.2128192 4.1539502 6.145487 4.1152344 5.8964844 C 4.1152343 5.0355562 4.5168862 3.6230469 5.0136719 3.6230469 z M 3.9902344 7.4980469 L 4.0019531 8.6503906 C 4.0051631 8.9336497 4.4447717 9.1621094 4.9941406 9.1621094 C 5.5435097 9.1621094 5.9876072 8.9336495 5.984375 8.6503906 L 5.9726562 7.5117188 C 5.6685004 7.5568727 5.3529833 7.5800781 5.0273438 7.5800781 C 4.6695072 7.5800781 4.3213728 7.5523088 3.9902344 7.4980469 z " />
  <g
     id="path1337"
     transform="matrix(0.59775801,0,0,1,2.0054386,1.0845133)" />
</svg>
