<?xml version="1.0" encoding="UTF-8" standalone="no"?>
<!-- Uploaded to: SVG Repo, www.svgrepo.com, Generator: SVG Repo Mixer Tools -->

<svg
   width="800px"
   height="800px"
   viewBox="0 0 512 512"
   version="1.1"
   id="svg7"
   sodipodi:docname="fields.svg"
   inkscape:version="1.2.2 (b0a8486541, 2022-12-01)"
   xmlns:inkscape="http://www.inkscape.org/namespaces/inkscape"
   xmlns:sodipodi="http://sodipodi.sourceforge.net/DTD/sodipodi-0.dtd"
   xmlns="http://www.w3.org/2000/svg"
   xmlns:svg="http://www.w3.org/2000/svg"
   xmlns:rdf="http://www.w3.org/1999/02/22-rdf-syntax-ns#"
   xmlns:cc="http://creativecommons.org/ns#"
   xmlns:dc="http://purl.org/dc/elements/1.1/">
  <defs
     id="defs11" />
  <sodipodi:namedview
     id="namedview9"
     pagecolor="#505050"
     bordercolor="#eeeeee"
     borderopacity="1"
     inkscape:showpageshadow="0"
     inkscape:pageopacity="0"
     inkscape:pagecheckerboard="0"
     inkscape:deskcolor="#505050"
     showgrid="false"
     inkscape:zoom="1.28375"
     inkscape:cx="348.9776"
     inkscape:cy="400.77897"
     inkscape:window-width="2494"
     inkscape:window-height="1371"
     inkscape:window-x="66"
     inkscape:window-y="32"
     inkscape:window-maximized="1"
     inkscape:current-layer="icon" />
  <title
     id="title2">table-rows</title>
  <g
     id="Page-1"
     stroke="none"
     stroke-width="1"
     fill="none"
     fill-rule="evenodd">
    <g
       id="icon"
       fill="#000000"
       transform="translate(42.666667, 106.666667)">
      <path
         d="M3.55271368e-14,85.3333333 L106.666667,85.3333333 L106.666667,128 L3.55271368e-14,128 L3.55271368e-14,85.3333333 Z M3.55271368e-14,4.26325641e-14 L106.666667,4.26325641e-14 L106.666667,42.6666667 L3.55271368e-14,42.6666667 L3.55271368e-14,4.26325641e-14 Z M3.55271368e-14,170.666667 L106.666667,170.666667 L106.666667,213.333333 L3.55271368e-14,213.333333 L3.55271368e-14,170.666667 Z M3.55271368e-14,256 L106.666667,256 L106.666667,298.666667 L3.55271368e-14,298.666667 L3.55271368e-14,256 Z M149.333333,85.3333333 L426.666667,85.3333333 L426.666667,128 L149.333333,128 L149.333333,85.3333333 Z M149.333333,4.26325641e-14 L426.666667,4.26325641e-14 L426.666667,42.6666667 L149.333333,42.6666667 L149.333333,4.26325641e-14 Z M149.333333,170.666667 L426.666667,170.666667 L426.666667,213.333333 L149.333333,213.333333 L149.333333,170.666667 Z M149.333333,256 L426.666667,256 L426.666667,298.666667 L149.333333,298.666667 L149.333333,256 Z"
         id="Combined-Shape"
         style="fill:#ffffff;fill-opacity:1" />
    </g>
  </g>
  <metadata
     id="metadata989">
    <rdf:RDF>
      <cc:Work
         rdf:about="">
        <dc:title>table-rows</dc:title>
      </cc:Work>
    </rdf:RDF>
  </metadata>
</svg>
