<?xml version="1.0" encoding="UTF-8" standalone="no"?>
<svg
   class="svg-icon"
   style="width: 1em; height: 1em;vertical-align: middle;fill: currentColor;overflow: hidden;"
   viewBox="0 0 1024 1024"
   version="1.1"
   id="svg2"
   sodipodi:docname="file.svg"
   inkscape:version="1.4.2 (ebf0e940, 2025-05-08)"
   xmlns:inkscape="http://www.inkscape.org/namespaces/inkscape"
   xmlns:sodipodi="http://sodipodi.sourceforge.net/DTD/sodipodi-0.dtd"
   xmlns="http://www.w3.org/2000/svg"
   xmlns:svg="http://www.w3.org/2000/svg">
  <defs
     id="defs2" />
  <sodipodi:namedview
     id="namedview2"
     pagecolor="#ffffff"
     bordercolor="#000000"
     borderopacity="0.25"
     inkscape:showpageshadow="2"
     inkscape:pageopacity="0.0"
     inkscape:pagecheckerboard="0"
     inkscape:deskcolor="#d1d1d1"
     inkscape:zoom="0.31148147"
     inkscape:cx="467.12249"
     inkscape:cy="422.17599"
     inkscape:window-width="1104"
     inkscape:window-height="696"
     inkscape:window-x="99"
     inkscape:window-y="33"
     inkscape:window-maximized="0"
     inkscape:current-layer="svg2"
     showgrid="false" />
  <g
     id="g1"
     transform="matrix(1.3964203,0,0,1.2538818,-206.17768,-125.18483)"
     style="fill:#ffffff;fill-opacity:1">
    <path
       d="m 651.0592,321.536 h 99.4304 c 12.1856,0 18.3296,-14.9504 9.6256,-23.552 L 643.1744,180.9408 c -8.6016,-8.6016 -23.2448,-2.4576 -23.2448,9.8304 v 99.2256 C 619.8272,320 651.0592,321.536 651.0592,321.536 Z"
       id="path1"
       style="fill:#ffffff;fill-opacity:1" />
    <path
       d="M 765.0304,373.0432 H 625.4272 c -31.23255,-1.30135 -56.4928,-17.8704 -56.4928,-59.312 0,0 1.30136,-67.9742 0,-139.5488 -0.2271,-12.49074 -10.0352,-22.528 -22.3232,-22.528 H 262.144 c 0,0 -25.4976,1.7408 -25.4976,25.8048 v 669.184 c 0,0 1.7408,25.8048 25.4976,25.8048 h 499.712 c 0,0 25.4976,0.1024 25.4976,-25.8048 v -451.072 c 0,-12.4928 -10.0352,-22.528 -22.3232,-22.528 z M 633.0368,727.552 H 391.9872 c -12.288,0 -22.3232,-10.1376 -22.3232,-22.528 0,-12.3904 10.0352,-22.528 22.3232,-22.528 h 241.0496 c 12.288,0 22.3232,10.1376 22.3232,22.528 0,12.3904 -10.0352,22.528 -22.3232,22.528 z m 0,-113.664 H 391.9872 c -12.288,0 -22.3232,-10.1376 -22.3232,-22.528 0,-12.3904 10.0352,-22.528 22.3232,-22.528 h 241.0496 c 12.288,0 22.3232,10.1376 22.3232,22.528 0,12.3904 -10.0352,22.528 -22.3232,22.528 z m 0,-113.7664 H 391.9872 c -12.288,0 -22.3232,-10.1376 -22.3232,-22.528 0,-12.3904 10.0352,-22.528 22.3232,-22.528 h 241.0496 c 12.288,0 22.3232,10.1376 22.3232,22.528 0,12.3904 -10.0352,22.528 -22.3232,22.528 z"
       id="path2"
       sodipodi:nodetypes="scssscscscssssssssssssssssssssssss"
       style="fill:#ffffff;fill-opacity:1" />
  </g>
</svg>
