<?xml version="1.0" encoding="UTF-8" standalone="no"?>
<!-- Uploaded to: SVG Repo, www.svgrepo.com, Generator: SVG Repo Mixer Tools -->

<svg
   fill="#000000"
   version="1.1"
   id="Capa_1"
   width="24"
   height="24"
   viewBox="0 0 9.2697 9.2697"
   xml:space="preserve"
   sodipodi:docname="find_in_files.svg"
   inkscape:version="1.4.2 (ebf0e940, 2025-05-08)"
   xmlns:inkscape="http://www.inkscape.org/namespaces/inkscape"
   xmlns:sodipodi="http://sodipodi.sourceforge.net/DTD/sodipodi-0.dtd"
   xmlns="http://www.w3.org/2000/svg"
   xmlns:svg="http://www.w3.org/2000/svg"><defs
   id="defs4">
	

		
		
		
	</defs><sodipodi:namedview
   id="namedview4"
   pagecolor="#ffffff"
   bordercolor="#000000"
   borderopacity="0.25"
   inkscape:showpageshadow="2"
   inkscape:pageopacity="0.0"
   inkscape:pagecheckerboard="0"
   inkscape:deskcolor="#d1d1d1"
   inkscape:zoom="8.6743292"
   inkscape:cx="13.199868"
   inkscape:cy="14.525619"
   inkscape:window-width="1064"
   inkscape:window-height="565"
   inkscape:window-x="0"
   inkscape:window-y="33"
   inkscape:window-maximized="0"
   inkscape:current-layer="Capa_1"
   showgrid="false" />
<path
   id="path1"
   style="fill:#ffffff;fill-opacity:1;stroke-width:0.020381"
   d="m 4.5687187,1.7794765 c -0.035082,0 -0.070185,0.00864 -0.1030582,0.025325 l -2.701238,1.3680214 c -0.088178,0.044593 -0.1465821,0.1430348 -0.1498522,0.2527487 -0.00316,0.1094967 0.048426,0.2116539 0.1336971,0.2631766 l 2.701238,1.6361638 c 0.037253,0.022699 0.07827,0.033767 0.1192133,0.033767 0.041154,0 0.081903,-0.011068 0.1192133,-0.033767 L 7.3891701,3.688748 C 7.474365,3.6372253 7.5259651,3.5350681 7.5228671,3.4255714 7.5191763,3.3158575 7.4613269,3.2174163 7.373015,3.1728227 L 4.6712198,1.8048011 C 4.6385187,1.7881082 4.6038006,1.7794765 4.5687187,1.7794765 Z M 1.8652523,4.3635725 C 1.7754685,4.364339 1.6891379,4.4191697 1.644095,4.5155197 1.5781193,4.6555998 1.6249978,4.8296048 1.7482674,4.9043258 l 2.701238,1.6366603 c 0.037253,0.022547 0.07827,0.033767 0.1192133,0.033767 0.041154,0 0.081903,-0.011068 0.1192133,-0.033767 L 7.3891701,4.9043258 C 7.5121527,4.8296048 7.5589357,4.6555998 7.4933423,4.5155197 7.4273282,4.3753528 7.273975,4.3224004 7.1507436,4.3973386 L 4.5687187,5.9619976 1.9861368,4.3973386 C 1.9475075,4.3739272 1.9060632,4.3632241 1.8652523,4.3635725 Z m 0,1.1222246 C 1.7754683,5.4865486 1.6891379,5.5415291 1.644095,5.6377443 1.578119,5.7778243 1.624998,5.951938 1.7482674,6.0265505 l 2.701238,1.6361638 c 0.037253,0.022699 0.07827,0.034263 0.1192133,0.034263 0.041154,0 0.081903,-0.011413 0.1192133,-0.034263 L 7.3891701,6.0265505 C 7.5121527,5.951938 7.5589357,5.7778461 7.4933423,5.6377443 7.4273282,5.4977945 7.2741854,5.4445598 7.1507436,5.5195631 L 4.5687187,7.0837258 1.9861368,5.5195631 C 1.9475075,5.4961315 1.9060632,5.4854556 1.8652523,5.4857971 Z" />
</svg>
