<?xml version="1.0" encoding="UTF-8" standalone="no"?>
<svg
   viewBox="0 0 10 10"
   version="1.1"
   id="svg12006"
   sodipodi:docname="gear.svg"
   inkscape:version="1.2.2 (b0a8486541, 2022-12-01)"
   xmlns:inkscape="http://www.inkscape.org/namespaces/inkscape"
   xmlns:sodipodi="http://sodipodi.sourceforge.net/DTD/sodipodi-0.dtd"
   xmlns="http://www.w3.org/2000/svg"
   xmlns:svg="http://www.w3.org/2000/svg">
  <defs
     id="defs12010" />
  <sodipodi:namedview
     id="namedview12008"
     pagecolor="#505050"
     bordercolor="#eeeeee"
     borderopacity="1"
     inkscape:showpageshadow="0"
     inkscape:pageopacity="0"
     inkscape:pagecheckerboard="0"
     inkscape:deskcolor="#505050"
     showgrid="true"
     inkscape:zoom="90.509668"
     inkscape:cx="5.4745533"
     inkscape:cy="3.3863786"
     inkscape:window-width="2494"
     inkscape:window-height="1371"
     inkscape:window-x="66"
     inkscape:window-y="32"
     inkscape:window-maximized="1"
     inkscape:current-layer="svg12006">
    <inkscape:grid
       type="xygrid"
       id="grid12184" />
  </sodipodi:namedview>
  <path
     id="rect342"
     style="fill:#ffffff;stroke-width:1.15357;stroke-linecap:round"
     d="M 4.5742188,1 C 4.2608381,1 4.0097656,1.2510725 4.0097656,1.5644531 V 2.1816406 C 3.907395,2.216574 3.8069885,2.2569974 3.7089844,2.3027344 L 3.2753906,1.8691406 C 3.053797,1.647547 2.6981561,1.647547 2.4765625,1.8691406 L 1.8710938,2.4746094 c -0.2215936,0.2215936 -0.2215936,0.5772345 0,0.7988281 L 2.296875,3.6992188 C 2.249519,3.7996956 2.207788,3.9027187 2.171875,4.0078125 H 1.5664062 c -0.3133804,0 -0.5644531,0.2510725 -0.5644531,0.5644531 v 0.8574219 c 0,0.3133806 0.2510727,0.5644531 0.5644531,0.5644531 h 0.5996094 c 0.036414,0.1064596 0.078799,0.210791 0.1269532,0.3125 l -0.421875,0.421875 c -0.2215936,0.2215936 -0.2215936,0.5791877 0,0.8007813 l 0.6054687,0.6054687 c 0.2215936,0.2215936 0.5772345,0.2215936 0.7988281,0 L 3.6992188,7.7109375 c 0.10115,0.04673 0.2048257,0.087809 0.3105468,0.1230469 V 8.4375 c 0,0.3133806 0.2510725,0.5664062 0.5644532,0.5664062 h 0.8574218 c 0.3133807,0 0.5644532,-0.2530256 0.5644532,-0.5664062 V 7.8320312 c 0.1044376,-0.036011 0.2068065,-0.077741 0.3066406,-0.125 l 0.4277344,0.4277344 c 0.2215933,0.2215936 0.5772345,0.2215936 0.7988281,0 L 8.1347656,7.5292969 c 0.2215936,-0.2215936 0.2215936,-0.5791877 0,-0.8007813 L 7.7070312,6.3007812 c 0.046626,-0.099881 0.087704,-0.2022495 0.1230469,-0.3066406 h 0.609375 c 0.3133807,0 0.5664063,-0.2510725 0.5664063,-0.5644531 V 4.5722656 c 0,-0.3133806 -0.2530256,-0.5644531 -0.5664063,-0.5644531 H 7.8320312 C 7.7953457,3.9040026 7.7529639,3.8022863 7.7050781,3.703125 L 8.1347656,3.2734375 c 0.2215936,-0.2215936 0.2215936,-0.5772345 0,-0.7988281 L 7.5292969,1.8691406 c -0.2215936,-0.2215936 -0.5772348,-0.2215936 -0.7988281,0 L 6.296875,2.3027344 C 6.198952,2.2556714 6.0985445,2.2139434 5.9960938,2.1777344 V 1.5644531 C 5.9960937,1.2510725 5.7450213,1 5.4316406,1 Z M 5.0203004,2.9772848 C 6.1905187,2.9885331 6.9995645,3.7775342 7.0028849,4.9995591 6.9974247,6.2084102 6.2002225,7.0191299 5.0084386,7.0365028 3.8272557,7.0260645 2.9678373,6.2155937 2.9614614,4.9897925 2.9823288,3.8224917 3.873704,2.9890216 5.0203004,2.9772848 Z"
     sodipodi:nodetypes="ssccssssccssssccssssccssssccssssccssssccssssccsssccccc" />
</svg>
