<?xml version="1.0" encoding="UTF-8" standalone="no"?>
<svg
   viewBox="0 0 10 10"
   version="1.1"
   id="svg12006"
   sodipodi:docname="magnify.svg"
   inkscape:version="1.2.2 (b0a8486541, 2022-12-01)"
   xmlns:inkscape="http://www.inkscape.org/namespaces/inkscape"
   xmlns:sodipodi="http://sodipodi.sourceforge.net/DTD/sodipodi-0.dtd"
   xmlns="http://www.w3.org/2000/svg"
   xmlns:svg="http://www.w3.org/2000/svg">
  <defs
     id="defs12010" />
  <sodipodi:namedview
     id="namedview12008"
     pagecolor="#505050"
     bordercolor="#eeeeee"
     borderopacity="1"
     inkscape:showpageshadow="0"
     inkscape:pageopacity="0"
     inkscape:pagecheckerboard="0"
     inkscape:deskcolor="#505050"
     showgrid="true"
     inkscape:zoom="64"
     inkscape:cx="12.070312"
     inkscape:cy="2.8203125"
     inkscape:window-width="2494"
     inkscape:window-height="1371"
     inkscape:window-x="66"
     inkscape:window-y="32"
     inkscape:window-maximized="1"
     inkscape:current-layer="svg12006">
    <inkscape:grid
       type="xygrid"
       id="grid12184" />
  </sodipodi:namedview>
  <path
     id="path4288"
     style="color:#000000;fill:#ffffff;fill-opacity:1;stroke-linecap:round;-inkscape-stroke:none"
     d="m 2.8741914,2.8741533 c -1.1757564,1.1757564 -1.1757565,3.0972677 0,4.2730242 0.9266736,0.9266736 2.3159088,1.1223789 3.4388591,0.5883349 L 7.257701,8.6801629 c 0.301571,0.301571 0.7880916,0.3001899 1.0896626,-0.00138 L 8.6622471,8.3638984 c 0.301571,-0.301571 0.301571,-0.7867106 0,-1.0882816 L 7.7245019,6.3378717 C 8.2731234,5.2107068 8.0806254,3.807563 7.1472156,2.8741533 c -1.1757565,-1.1757565 -3.0972678,-1.1757564 -4.2730242,0 z m 0.7402524,0.7402524 c 0.7752882,-0.7752881 2.0172313,-0.7752881 2.7925194,0 0.7752882,0.7752882 0.7752881,2.0172312 0,2.7925194 -0.7752881,0.7752882 -2.0172312,0.7752882 -2.7925194,0 -0.7752881,-0.7752881 -0.7752881,-2.0172312 0,-2.7925194 z" />
</svg>
