<?xml version="1.0" encoding="UTF-8" standalone="no"?>
<!-- Created with Inkscape (http://www.inkscape.org/) -->

<svg
   width="512"
   height="512"
   viewBox="0 0 135.46666 135.46667"
   version="1.1"
   id="svg1"
   inkscape:version="1.2.2 (b0a8486541, 2022-12-01)"
   sodipodi:docname="orbiter2.svg"
   inkscape:export-filename="orbiter.png"
   inkscape:export-xdpi="192"
   inkscape:export-ydpi="192"
   xmlns:inkscape="http://www.inkscape.org/namespaces/inkscape"
   xmlns:sodipodi="http://sodipodi.sourceforge.net/DTD/sodipodi-0.dtd"
   xmlns="http://www.w3.org/2000/svg"
   xmlns:svg="http://www.w3.org/2000/svg">
  <sodipodi:namedview
     id="namedview1"
     pagecolor="#303030"
     bordercolor="#000000"
     borderopacity="0.25"
     inkscape:showpageshadow="true"
     inkscape:pageopacity="0.0"
     inkscape:pagecheckerboard="0"
     inkscape:deskcolor="#d1d1d1"
     inkscape:document-units="mm"
     showborder="true"
     inkscape:antialias-rendering="true"
     inkscape:zoom="0.7071068"
     inkscape:cx="-294.15641"
     inkscape:cy="519.72347"
     inkscape:window-width="2494"
     inkscape:window-height="1371"
     inkscape:window-x="66"
     inkscape:window-y="32"
     inkscape:window-maximized="1"
     inkscape:current-layer="layer1"
     showgrid="false"
     showguides="false" />
  <defs
     id="defs1" />
  <g
     inkscape:label="Layer 1"
     inkscape:groupmode="layer"
     id="layer1">
    <!-- background -->
    <!-- hexagon -->
    <!-- outer ring -->
    <!-- inner ring -->
    <!-- sun rays -->
    <!-- sun core -->
    <g
       id="g1"
       transform="matrix(1.3143354,0,0,1.3143354,-1.3756816,-1.3606561)">
      <g
         transform="matrix(0.01263957,3.6426614e-5,-3.6426614e-5,0.01263957,1.1500651,1.0836235)"
         id="g14">
        <!-- repeat 12 rays -->
        <g
           id="g2" />
        <g
           transform="rotate(30,256,256)"
           id="g3" />
        <g
           transform="rotate(60,256,256)"
           id="g4" />
        <g
           transform="rotate(90,256,256)"
           id="g5" />
        <g
           transform="rotate(120,256,256)"
           id="g6" />
        <g
           transform="rotate(150,256,256)"
           id="g7" />
        <g
           transform="rotate(180,256,256)"
           id="g8" />
        <g
           transform="rotate(-150,256,256)"
           id="g9" />
        <g
           transform="rotate(-120,256,256)"
           id="g10" />
        <g
           transform="rotate(-90,256,256)"
           id="g11" />
        <g
           transform="rotate(-60,256,256)"
           id="g12" />
        <g
           transform="rotate(-30,256,256)"
           id="g13" />
      </g>
    </g>
    <g
       id="g13618"
       transform="matrix(24.152611,0,0,24.152611,-40.977002,-8.2624798)">
      <path
         id="rect4438"
         style="fill:#ffffff;fill-opacity:0;stroke:#ffffff;stroke-width:0.0828068;stroke-linecap:round"
         d="m 3.2188784,3.3282504 h 2.564196 c 0.1420565,0 0.2564196,0.1143631 0.2564196,0.2564196 0,0.1420565 -0.1143631,0.2564196 -0.2564196,0.2564196 h -2.564196 c -0.1420564,0 -0.2564196,-0.1143631 -0.2564196,-0.2564196 0,-0.1420565 0.1143632,-0.2564196 0.2564196,-0.2564196 z" />
      <path
         id="rect4803"
         style="fill:#ffffff;fill-opacity:0;stroke:#ffffff;stroke-width:0.0828068;stroke-linecap:round"
         d="m 3.2188784,2.451879 h 2.564196 c 0.1420565,0 0.2564196,0.1143632 0.2564196,0.2564196 0,0.1420565 -0.1143631,0.2564196 -0.2564196,0.2564196 h -2.564196 c -0.1420564,0 -0.2564196,-0.1143631 -0.2564196,-0.2564196 0,-0.1420564 0.1143632,-0.2564196 0.2564196,-0.2564196 z" />
      <path
         id="rect4805"
         style="fill:#ffffff;fill-opacity:0;stroke:#ffffff;stroke-width:0.0828068;stroke-linecap:round"
         d="m 3.2188784,4.2046218 h 2.564196 c 0.1420565,0 0.2564196,0.1143631 0.2564196,0.2564196 0,0.1420564 -0.1143631,0.2564196 -0.2564196,0.2564196 h -2.564196 c -0.1420564,0 -0.2564196,-0.1143632 -0.2564196,-0.2564196 0,-0.1420565 0.1143632,-0.2564196 0.2564196,-0.2564196 z" />
      <path
         id="rect4807"
         style="fill:#ffffff;fill-opacity:0;stroke:#ffffff;stroke-width:0.0828068;stroke-linecap:round"
         d="m 3.2188784,1.5755074 h 2.564196 c 0.1420565,0 0.2564196,0.1143631 0.2564196,0.2564196 0,0.1420565 -0.1143631,0.2564196 -0.2564196,0.2564196 h -2.564196 c -0.1420564,0 -0.2564196,-0.1143631 -0.2564196,-0.2564196 0,-0.1420565 0.1143632,-0.2564196 0.2564196,-0.2564196 z" />
    </g>
  </g>
</svg>
