<?xml version="1.0" encoding="UTF-8" standalone="no"?>
<!-- Created with Inkscape (http://www.inkscape.org/) -->

<svg
   width="512"
   height="512"
   viewBox="0 0 135.46666 135.46667"
   version="1.1"
   id="svg1"
   inkscape:version="1.2.2 (b0a8486541, 2022-12-01)"
   sodipodi:docname="orbiter.svg"
   inkscape:export-filename="orbiter.png"
   inkscape:export-xdpi="192"
   inkscape:export-ydpi="192"
   xmlns:inkscape="http://www.inkscape.org/namespaces/inkscape"
   xmlns:sodipodi="http://sodipodi.sourceforge.net/DTD/sodipodi-0.dtd"
   xmlns="http://www.w3.org/2000/svg"
   xmlns:svg="http://www.w3.org/2000/svg">
  <sodipodi:namedview
     id="namedview1"
     pagecolor="#303030"
     bordercolor="#000000"
     borderopacity="0.25"
     inkscape:showpageshadow="true"
     inkscape:pageopacity="0.0"
     inkscape:pagecheckerboard="0"
     inkscape:deskcolor="#d1d1d1"
     inkscape:document-units="mm"
     showborder="true"
     inkscape:antialias-rendering="true"
     inkscape:zoom="0.7071068"
     inkscape:cx="-250.31579"
     inkscape:cy="465.98336"
     inkscape:window-width="2494"
     inkscape:window-height="1371"
     inkscape:window-x="66"
     inkscape:window-y="32"
     inkscape:window-maximized="1"
     inkscape:current-layer="g13618"
     showgrid="false"
     showguides="false" />
  <defs
     id="defs1" />
  <g
     inkscape:label="Layer 1"
     inkscape:groupmode="layer"
     id="layer1">
    <!-- background -->
    <!-- hexagon -->
    <!-- outer ring -->
    <!-- inner ring -->
    <!-- sun rays -->
    <!-- sun core -->
    <g
       id="g1"
       transform="matrix(1.3143354,0,0,1.3143354,-1.3756816,-1.3606561)">
      <g
         transform="matrix(0.01263957,3.6426614e-5,-3.6426614e-5,0.01263957,1.1500651,1.0836235)"
         id="g14">
        <!-- repeat 12 rays -->
        <g
           id="g2" />
        <g
           transform="rotate(30,256,256)"
           id="g3" />
        <g
           transform="rotate(60,256,256)"
           id="g4" />
        <g
           transform="rotate(90,256,256)"
           id="g5" />
        <g
           transform="rotate(120,256,256)"
           id="g6" />
        <g
           transform="rotate(150,256,256)"
           id="g7" />
        <g
           transform="rotate(180,256,256)"
           id="g8" />
        <g
           transform="rotate(-150,256,256)"
           id="g9" />
        <g
           transform="rotate(-120,256,256)"
           id="g10" />
        <g
           transform="rotate(-90,256,256)"
           id="g11" />
        <g
           transform="rotate(-60,256,256)"
           id="g12" />
        <g
           transform="rotate(-30,256,256)"
           id="g13" />
      </g>
    </g>
    <g
       id="g13618"
       transform="matrix(24.152611,0,0,24.152611,-40.977002,-8.2624798)">
      <path
         style="color:#000000;fill:#ffffff;fill-opacity:0.516423;stroke-width:0.840272;stroke-linecap:round;-inkscape-stroke:none"
         d="m 4.500156,1.8647415 c -0.7075,0 -1.2817429,0.5742429 -1.2817429,1.2817429 0,0.7075 0.5742429,1.2817428 1.2817429,1.2817428 0.7075,0 1.283384,-0.5742428 1.283384,-1.2817428 0,-0.7075 -0.575884,-1.2817429 -1.283384,-1.2817429 z m 0,0.083699 c 0.6624823,0 1.1996851,0.5355617 1.1996851,1.198044 0,0.6624822 -0.5372028,1.1980438 -1.1996851,1.1980438 -0.6624823,0 -1.1980439,-0.5355616 -1.1980439,-1.1980438 0,-0.6624823 0.5355616,-1.198044 1.1980439,-1.198044 z"
         id="circle1013" />
      <path
         style="color:#000000;fill:#ffffff;-inkscape-stroke:none;fill-opacity:0.39548483"
         d="M 3.359375,0.98632813 C 3.29377,0.9865238 3.2334322,1.0229529 3.2011719,1.0800781 l -1.140625,1.9765625 c -0.032013,0.056064 -0.032013,0.1236237 0,0.1796875 l 1.140625,1.9765625 c 0.03226,0.057125 0.092598,0.093554 0.1582031,0.09375 h 2.2832031 c 0.065605,-1.956e-4 0.1259429,-0.036625 0.1582031,-0.09375 l 1.140625,-1.9765625 c 0.032013,-0.056064 0.032013,-0.1236236 0,-0.1796875 L 5.8007812,1.0800781 c -0.03226,-0.057125 -0.092598,-0.0935543 -0.1582031,-0.09375 z m 0,0.0507813 h 2.2832031 c 0.047707,1.423e-4 0.091775,0.024865 0.1152344,0.066406 l 1.140625,1.9765625 c 0.023278,0.040766 0.023278,0.092047 0,0.1328125 l -1.140625,1.9765625 c -0.02346,0.041541 -0.067527,0.066264 -0.1152344,0.066406 H 3.359375 C 3.3116676,5.2557171 3.2676001,5.2309943 3.2441406,5.1894531 L 2.1035156,3.2128906 c -0.023278,-0.040766 -0.023278,-0.092047 0,-0.1328125 l 1.140625,-1.9765625 c 0.023459,-0.041541 0.067527,-0.066264 0.1152344,-0.066406 z"
         id="path965" />
      <path
         style="color:#000000;fill:#ffffff;-inkscape-stroke:none;fill-opacity:1"
         d="M 3.359375,0.69921875 C 3.1913705,0.6990638 3.0351332,0.790027 2.9511719,0.93554688 L 1.8105469,2.9121094 c -0.083989,0.1453796 -0.083989,0.3233704 0,0.46875 l 1.140625,1.9765625 C 3.0351333,5.5029417 3.1913705,5.593905 3.359375,5.59375 H 5.6425781 C 5.8105827,5.593905 5.9668199,5.502942 6.0507812,5.3574219 l 1.140625,-1.9765625 c 0.083989,-0.1453796 0.083989,-0.3233704 0,-0.46875 L 6.0507812,0.93554688 C 5.9668199,0.790027 5.8105827,0.6990638 5.6425781,0.69921875 Z m 0,0.12109375 H 5.6425781 C 5.7678527,0.82019696 5.8827057,0.885632 5.9453125,0.99414063 l 1.140625,1.97656247 c 0.062627,0.1084037 0.062627,0.2431588 0,0.3515625 L 5.9453125,5.2988281 C 5.8827057,5.4073368 5.7678527,5.4727718 5.6425781,5.4726562 H 3.359375 C 3.2341004,5.4727718 3.1192474,5.4073368 3.0566406,5.2988281 L 1.9160156,3.3222656 c -0.062627,-0.1084037 -0.062627,-0.2431588 0,-0.3515625 L 3.0566406,0.99414063 C 3.1192474,0.88563198 3.2341004,0.82019696 3.359375,0.8203125 Z"
         id="path967" />
      <path
         id="path13564"
         style="fill:#ffffff;fill-opacity:1;stroke:none;stroke-width:0.0874732;stroke-dasharray:none;stroke-opacity:1"
         d="M 4.4998871,2.6104536 C 4.2203198,2.6106722 3.9657204,2.8671072 3.9659264,3.1466746 3.9661448,3.4259713 4.2205902,3.6804168 4.4998871,3.6806352 4.7794544,3.6808411 5.0358893,3.4262417 5.0361081,3.1466746 5.0363143,2.866837 4.7797248,2.6102475 4.4998871,2.6104536 Z" />
      <path
         style="color:#000000;fill:#ffffff;fill-opacity:1;stroke-width:0.875485;stroke-linecap:round;-inkscape-stroke:none"
         d="m 4.5001216,1.4091943 c -0.9584015,0 -1.7372901,0.7788885 -1.7372901,1.7372901 0,0.9584015 0.7788886,1.7372901 1.7372901,1.7372901 0.9584015,0 1.739,-0.7788886 1.739,-1.7372901 0,-0.9584016 -0.7805985,-1.7372901 -1.739,-1.7372901 z m 0,0.2581995 c 0.8184123,0 1.4790905,0.6606783 1.4790905,1.4790906 0,0.8184123 -0.6606782,1.4790905 -1.4790905,1.4790905 -0.8184123,0 -1.4773806,-0.6606782 -1.4773806,-1.4790905 0,-0.8184123 0.6589683,-1.4790905 1.4773806,-1.4790906 z"
         id="path408" />
    </g>
  </g>
</svg>
