<?xml version="1.0" encoding="UTF-8" standalone="no"?>
<!-- Created with Inkscape (http://www.inkscape.org/) -->

<svg
   width="512"
   height="512"
   viewBox="0 0 135.46666 135.46667"
   version="1.1"
   id="svg1"
   inkscape:version="1.2.2 (b0a8486541, 2022-12-01)"
   sodipodi:docname="orbiter.svg"
   inkscape:export-filename="orbiter.png"
   inkscape:export-xdpi="192"
   inkscape:export-ydpi="192"
   xmlns:inkscape="http://www.inkscape.org/namespaces/inkscape"
   xmlns:sodipodi="http://sodipodi.sourceforge.net/DTD/sodipodi-0.dtd"
   xmlns="http://www.w3.org/2000/svg"
   xmlns:svg="http://www.w3.org/2000/svg">
  <sodipodi:namedview
     id="namedview1"
     pagecolor="#303030"
     bordercolor="#000000"
     borderopacity="0.25"
     inkscape:showpageshadow="true"
     inkscape:pageopacity="0.0"
     inkscape:pagecheckerboard="0"
     inkscape:deskcolor="#d1d1d1"
     inkscape:document-units="mm"
     showborder="true"
     inkscape:antialias-rendering="true"
     inkscape:zoom="1.4142136"
     inkscape:cx="165.46299"
     inkscape:cy="318.55161"
     inkscape:window-width="2494"
     inkscape:window-height="1371"
     inkscape:window-x="66"
     inkscape:window-y="32"
     inkscape:window-maximized="1"
     inkscape:current-layer="g13618"
     showgrid="false"
     showguides="false" />
  <defs
     id="defs1" />
  <g
     inkscape:label="Layer 1"
     inkscape:groupmode="layer"
     id="layer1">
    <!-- background -->
    <!-- hexagon -->
    <!-- outer ring -->
    <!-- inner ring -->
    <!-- sun rays -->
    <!-- sun core -->
    <g
       id="g1"
       transform="matrix(1.3143354,0,0,1.3143354,-1.3756816,-1.3606561)">
      <g
         transform="matrix(0.01263957,3.6426614e-5,-3.6426614e-5,0.01263957,1.1500651,1.0836235)"
         id="g14">
        <!-- repeat 12 rays -->
        <g
           id="g2" />
        <g
           transform="rotate(30,256,256)"
           id="g3" />
        <g
           transform="rotate(60,256,256)"
           id="g4" />
        <g
           transform="rotate(90,256,256)"
           id="g5" />
        <g
           transform="rotate(120,256,256)"
           id="g6" />
        <g
           transform="rotate(150,256,256)"
           id="g7" />
        <g
           transform="rotate(180,256,256)"
           id="g8" />
        <g
           transform="rotate(-150,256,256)"
           id="g9" />
        <g
           transform="rotate(-120,256,256)"
           id="g10" />
        <g
           transform="rotate(-90,256,256)"
           id="g11" />
        <g
           transform="rotate(-60,256,256)"
           id="g12" />
        <g
           transform="rotate(-30,256,256)"
           id="g13" />
      </g>
    </g>
    <g
       id="g13618"
       transform="matrix(24.152611,0,0,24.152611,-40.977002,-8.2624798)">
      <path
         style="color:#000000;fill:#ffffff;stroke-linecap:round;-inkscape-stroke:none;fill-opacity:0.51642311"
         d="m 4.5,1.6210937 c -0.8419894,0 -1.5253906,0.6834013 -1.5253906,1.5253907 0,0.8419894 0.6834012,1.5253906 1.5253906,1.5253906 0.8419894,0 1.5273437,-0.6834012 1.5273437,-1.5253906 C 6.0273437,2.304495 5.3419894,1.6210937 4.5,1.6210937 Z m 0,0.099609 c 0.7884142,0 1.4277344,0.6373671 1.4277344,1.4257813 0,0.7884142 -0.6393202,1.4257812 -1.4277344,1.4257812 -0.7884142,0 -1.4257812,-0.637367 -1.4257812,-1.4257812 0,-0.7884142 0.637367,-1.4257813 1.4257812,-1.4257813 z"
         id="circle1013" />
      <path
         style="color:#000000;fill:#ffffff;-inkscape-stroke:none;fill-opacity:0.39548483"
         d="M 3.359375,0.98632813 C 3.29377,0.9865238 3.2334322,1.0229529 3.2011719,1.0800781 l -1.140625,1.9765625 c -0.032013,0.056064 -0.032013,0.1236237 0,0.1796875 l 1.140625,1.9765625 c 0.03226,0.057125 0.092598,0.093554 0.1582031,0.09375 h 2.2832031 c 0.065605,-1.956e-4 0.1259429,-0.036625 0.1582031,-0.09375 l 1.140625,-1.9765625 c 0.032013,-0.056064 0.032013,-0.1236236 0,-0.1796875 L 5.8007812,1.0800781 c -0.03226,-0.057125 -0.092598,-0.0935543 -0.1582031,-0.09375 z m 0,0.0507813 h 2.2832031 c 0.047707,1.423e-4 0.091775,0.024865 0.1152344,0.066406 l 1.140625,1.9765625 c 0.023278,0.040766 0.023278,0.092047 0,0.1328125 l -1.140625,1.9765625 c -0.02346,0.041541 -0.067527,0.066264 -0.1152344,0.066406 H 3.359375 C 3.3116676,5.2557171 3.2676001,5.2309943 3.2441406,5.1894531 L 2.1035156,3.2128906 c -0.023278,-0.040766 -0.023278,-0.092047 0,-0.1328125 l 1.140625,-1.9765625 c 0.023459,-0.041541 0.067527,-0.066264 0.1152344,-0.066406 z"
         id="path965" />
      <path
         style="color:#000000;fill:#ffffff;-inkscape-stroke:none;fill-opacity:1"
         d="M 3.359375,0.69921875 C 3.1913705,0.6990638 3.0351332,0.790027 2.9511719,0.93554688 L 1.8105469,2.9121094 c -0.083989,0.1453796 -0.083989,0.3233704 0,0.46875 l 1.140625,1.9765625 C 3.0351333,5.5029417 3.1913705,5.593905 3.359375,5.59375 H 5.6425781 C 5.8105827,5.593905 5.9668199,5.502942 6.0507812,5.3574219 l 1.140625,-1.9765625 c 0.083989,-0.1453796 0.083989,-0.3233704 0,-0.46875 L 6.0507812,0.93554688 C 5.9668199,0.790027 5.8105827,0.6990638 5.6425781,0.69921875 Z m 0,0.12109375 H 5.6425781 C 5.7678527,0.82019696 5.8827057,0.885632 5.9453125,0.99414063 l 1.140625,1.97656247 c 0.062627,0.1084037 0.062627,0.2431588 0,0.3515625 L 5.9453125,5.2988281 C 5.8827057,5.4073368 5.7678527,5.4727718 5.6425781,5.4726562 H 3.359375 C 3.2341004,5.4727718 3.1192474,5.4073368 3.0566406,5.2988281 L 1.9160156,3.3222656 c -0.062627,-0.1084037 -0.062627,-0.2431588 0,-0.3515625 L 3.0566406,0.99414063 C 3.1192474,0.88563198 3.2341004,0.82019696 3.359375,0.8203125 Z"
         id="path967" />
      <path
         id="path3931"
         style="color:#000000;fill:#ffffff;-inkscape-stroke:none;fill-opacity:0.60174483"
         d="M 4.4911131 1.8106807 C 4.4901172 1.8106867 4.4891103 1.810708 4.4880963 1.8107449 C 4.4271993 1.8129649 4.3559651 1.8301528 4.3201393 1.8458768 C 4.2911943 1.8585808 4.2534715 1.8642113 4.2648525 1.9228802 L 4.4105151 2.6238065 C 4.3789892 2.6298397 4.3481995 2.6389594 4.3184918 2.6507866 L 4.0938145 1.9693947 C 4.0804228 1.9305511 4.0583637 1.922831 4.0348905 1.9233937 C 4.0242205 1.9236495 4.013191 1.9255596 4.002861 1.9270096 C 3.9503391 1.9343796 3.8833187 1.9608501 3.8312881 1.99109 C 3.8278681 1.99307 3.824399 1.9946313 3.820954 1.9967813 C 3.769326 2.0291523 3.7164707 2.0799759 3.6933067 2.1115056 C 3.6745917 2.1369805 3.6448309 2.1604221 3.6840209 2.2055401 L 4.164763 2.7439653 C 4.1404748 2.7646715 4.1178954 2.7874292 4.0973662 2.8118755 L 3.5589625 2.3311334 C 3.5406325 2.3152124 3.525265 2.3103011 3.511421 2.3114921 C 3.491187 2.3132321 3.4748362 2.3282202 3.4592153 2.3404192 C 3.4174153 2.3730631 3.3723768 2.4292994 3.342437 2.4815031 C 3.340467 2.4849331 3.3381322 2.4882522 3.3362322 2.4918372 C 3.3077063 2.5456852 3.2872955 2.6157285 3.2829995 2.6546164 C 3.2795295 2.6860354 3.2652697 2.7214491 3.3217687 2.7409271 L 4.0053001 2.9661606 C 3.9936302 2.9960106 3.9846781 3.0269199 3.9788121 3.0585477 L 3.2767947 2.9124786 C 3.2676247 2.9106986 3.2595365 2.9099732 3.2525105 2.9104032 L 3.2525105 2.9104246 C 3.2145675 2.9127446 3.2051918 2.9442412 3.1946349 2.9703542 C 3.1747569 3.0195251 3.1639728 3.090541 3.1641458 3.1507207 C 3.1641572 3.1546707 3.1639985 3.1585394 3.1641458 3.1625954 C 3.1663658 3.2234923 3.1835538 3.2947265 3.1992777 3.3305524 C 3.2119817 3.3594974 3.2176123 3.3972201 3.2762812 3.3858391 L 3.9799033 3.2392565 C 3.9861279 3.2707331 3.995399 3.3014696 4.0073755 3.3311087 L 3.3227957 3.5563636 C 3.2662957 3.5758426 3.2757716 3.6147737 3.2804106 3.6478307 C 3.2877806 3.7003526 3.314252 3.7668596 3.344491 3.81889 C 3.346471 3.82231 3.3480323 3.8257792 3.3501823 3.8292242 C 3.3825533 3.8808522 3.4333759 3.9342208 3.4649065 3.957385 C 3.4903815 3.9761 3.5138231 4.0058608 3.5589411 3.9666708 L 4.1004045 3.4833826 C 4.1210157 3.5074518 4.1436355 3.529817 4.1679296 3.5501588 L 3.6845344 4.0912157 C 3.6453434 4.1363347 3.6732772 4.1651671 3.6938202 4.1914764 C 3.7264641 4.2332764 3.7827005 4.2783363 3.834904 4.3082761 C 3.838334 4.3102461 3.8416532 4.312046 3.8452382 4.313946 C 3.8990861 4.3424719 3.9691292 4.3633962 4.0080174 4.3676922 C 4.0394364 4.3711622 4.0748501 4.3849085 4.094328 4.3284095 L 4.3210593 3.6413691 C 4.3507464 3.6529632 4.3815051 3.6618521 4.4129756 3.667686 L 4.2658795 4.373897 C 4.2544985 4.4325669 4.2928286 4.4435458 4.3237766 4.4560568 C 4.3729475 4.4759348 4.4439422 4.4867188 4.5041217 4.4865458 C 4.5080717 4.4865344 4.5119404 4.4866931 4.5159964 4.4865458 C 4.5768933 4.4843258 4.6481277 4.4671379 4.6839534 4.4514139 C 4.7128983 4.4387099 4.7506211 4.4330794 4.7392401 4.3744105 L 4.5920584 3.6668729 C 4.6233299 3.6607969 4.6538973 3.6517245 4.6833971 3.6399784 L 4.909786 4.327896 C 4.929265 4.384396 4.9681961 4.3744066 5.001253 4.3697676 C 5.053775 4.3623976 5.1202606 4.3364406 5.172291 4.3062007 C 5.175711 4.3042207 5.1791802 4.3021459 5.1826252 4.2999959 C 5.2342531 4.2676249 5.287622 4.217316 5.310786 4.1857851 C 5.329501 4.1603112 5.3592831 4.1363337 5.3200932 4.0912157 L 4.8354142 3.5484258 C 4.8595521 3.5280795 4.8820348 3.5057326 4.9025114 3.4817137 L 5.4446381 3.9656438 C 5.489757 4.0048348 5.5185681 3.9774001 5.5448774 3.9568501 C 5.5866773 3.9242062 5.6317364 3.8679912 5.661677 3.8157876 C 5.663647 3.8123576 5.6654469 3.8090385 5.6673469 3.8054535 C 5.6958729 3.7516055 5.7167982 3.6815623 5.7210932 3.6426743 C 5.7245632 3.6112553 5.7383094 3.5753281 5.6818105 3.5558501 L 4.9950054 3.3296966 C 5.0068925 3.3001411 5.0160915 3.2694971 5.0222423 3.2381226 L 5.7272979 3.3848121 C 5.7859679 3.3961931 5.7969468 3.3578845 5.8094578 3.3269365 C 5.8293358 3.2777656 5.8401198 3.2067495 5.8399468 3.14657 C 5.8399354 3.14262 5.8400941 3.1387513 5.8399468 3.1346953 C 5.8377268 3.0737984 5.8205389 3.002564 5.8048149 2.9667383 C 5.7933019 2.9405073 5.7874448 2.9069462 5.7428099 2.9093762 C 5.7381899 2.9096276 5.7333074 2.9103816 5.7278114 2.9114516 L 5.0230125 3.0580769 C 5.0171261 3.0266298 5.0081898 2.9958855 4.9965459 2.9662034 L 5.681297 2.7403922 C 5.7377969 2.7209132 5.7278075 2.682516 5.7231686 2.64946 C 5.7157986 2.5969381 5.6898416 2.5299178 5.6596016 2.4778872 C 5.6576216 2.4744672 5.6555469 2.470988 5.6533969 2.467553 C 5.6210245 2.415924 5.5707163 2.3630696 5.5391861 2.3399057 C 5.5224685 2.3276239 5.5066811 2.3101954 5.4849264 2.3109786 C 5.4735314 2.3113888 5.4601481 2.3171529 5.4446381 2.3306199 L 4.904865 2.8127314 C 4.8843389 2.7882716 4.8617544 2.7655129 4.8374682 2.7447783 L 5.3190448 2.2055401 C 5.3582357 2.1604211 5.3308225 2.1321223 5.3102725 2.1058143 C 5.2776285 2.0640143 5.2213923 2.0189757 5.1691886 1.989036 C 5.1657586 1.987066 5.1624394 1.9847312 5.1588544 1.9828313 C 5.1050065 1.9543053 5.0349631 1.9338945 4.9960752 1.9295985 C 4.9823364 1.9280793 4.9673065 1.924235 4.9536902 1.9254691 C 4.9361845 1.9270649 4.9202037 1.9366005 4.9092511 1.9683677 L 4.6844455 2.6515782 C 4.6546311 2.6395876 4.6237172 2.6303429 4.5920798 2.6241702 L 4.7382131 1.9233937 C 4.7495941 1.8647238 4.7112855 1.8537449 4.6803375 1.8412339 C 4.6311665 1.8213559 4.5601721 1.8105719 4.4999923 1.8107449 C 4.4970298 1.8107534 4.4941006 1.8106626 4.4911131 1.8106807 z M 4.4999923 2.6953112 C 4.7314524 2.6951407 4.951336 2.9150243 4.9511655 3.1464844 C 4.9509847 3.377725 4.7313714 3.595881 4.4999923 3.5957105 C 4.2688325 3.5955298 4.0509683 3.377644 4.0507876 3.1464844 C 4.0506171 2.9151053 4.2687516 2.6954921 4.4999923 2.6953112 z " />
      <path
         id="path13564"
         style="fill:#ffffff;fill-opacity:1;stroke:none;stroke-width:0.0437042;stroke-dasharray:none;stroke-opacity:1"
         d="M 4.5004526,2.8781972 C 4.3607725,2.8783064 4.2335671,3.0064289 4.23367,3.1461091 4.2337791,3.285654 4.3609076,3.4127825 4.5004526,3.4128916 4.6401327,3.4129945 4.7682552,3.2857891 4.7683645,3.1461091 4.7684675,3.0062939 4.6402678,2.8780942 4.5004526,2.8781972 Z" />
      <path
         style="color:#000000;fill:#ffffff;stroke-linecap:round;-inkscape-stroke:none;fill-opacity:1"
         d="m 4.5,1.1621094 c -1.0947095,0 -1.984375,0.8896654 -1.984375,1.984375 0,1.0947095 0.8896655,1.984375 1.984375,1.984375 1.0947095,0 1.9863281,-0.8896655 1.9863281,-1.984375 0,-1.0947096 -0.8916186,-1.984375 -1.9863281,-1.984375 z m 0,0.2949218 c 0.9348104,0 1.6894531,0.7546428 1.6894531,1.6894532 0,0.9348104 -0.7546427,1.6894531 -1.6894531,1.6894531 -0.9348104,0 -1.6875,-0.7546427 -1.6875,-1.6894531 0,-0.9348104 0.7526896,-1.6894531 1.6875,-1.6894532 z"
         id="path408" />
    </g>
  </g>
</svg>
