<?xml version="1.0" encoding="UTF-8" standalone="no"?>
<svg
   viewBox="0 0 10 10"
   version="1.1"
   id="svg12006"
   sodipodi:docname="replace2.svg"
   inkscape:version="1.2.2 (b0a8486541, 2022-12-01)"
   xml:space="preserve"
   xmlns:inkscape="http://www.inkscape.org/namespaces/inkscape"
   xmlns:sodipodi="http://sodipodi.sourceforge.net/DTD/sodipodi-0.dtd"
   xmlns="http://www.w3.org/2000/svg"
   xmlns:svg="http://www.w3.org/2000/svg"><defs
     id="defs12010" /><sodipodi:namedview
     id="namedview12008"
     pagecolor="#505050"
     bordercolor="#eeeeee"
     borderopacity="1"
     inkscape:showpageshadow="0"
     inkscape:pageopacity="0"
     inkscape:pagecheckerboard="0"
     inkscape:deskcolor="#505050"
     showgrid="true"
     inkscape:zoom="64"
     inkscape:cx="5.2109375"
     inkscape:cy="4.9296875"
     inkscape:window-width="2494"
     inkscape:window-height="1371"
     inkscape:window-x="66"
     inkscape:window-y="32"
     inkscape:window-maximized="1"
     inkscape:current-layer="svg12006"><inkscape:grid
       type="xygrid"
       id="grid12184" /></sodipodi:namedview><g
     id="g5448"
     transform="rotate(180,5.0011755,4.1320721)"><path
       style="color:#000000;fill:#ffffff;stroke-linecap:round;-inkscape-stroke:none"
       d="M 8.6479537,5.8071395 C 8.8583879,5.6281251 8.883753,5.3123726 8.7045943,5.1020614 L 7.100667,3.2207702 8.6989972,1.2456988 C 8.8781558,1.0353875 8.8527905,0.71963486 8.6423562,0.54062066 8.4315258,0.36193716 8.1157218,0.38818136 7.9372781,0.59921466 L 5.7862139,3.2227233 7.9448287,5.752452 c 0.1794149,0.208567 0.4936191,0.2330051 0.703125,0.054687 z"
       id="path5444"
       sodipodi:nodetypes="ccccccccc" /><path
       id="rect5446"
       style="fill:#ffffff;fill-opacity:1;stroke-width:1.43632;stroke-linecap:round"
       d="M 5.2426598 -4.1566479 C 5.2426598 -4.6142896 4.8741297 -4.9828198 4.416488 -4.9828198 L 2.0903161 -4.9828198 C 1.6326743 -4.9828198 1.2641442 -4.6142896 1.2641442 -4.1566479 L 1.2641442 -1.8207104 C 1.2641442 -1.3630686 1.6326743 -0.9945385 2.0903161 -0.9945385 L 4.416488 -0.9945385 C 4.8741297 -0.9945385 5.2426598 -1.3630686 5.2426598 -1.8207104 L 5.2426598 -4.1566479 z M 4.2465661 -3.8421948 C 4.2471843 -3.8360703 4.2465661 -3.8289563 4.2465661 -3.8226635 L 4.2465661 -2.1800854 C 4.2465661 -2.0794007 4.1656102 -1.9984448 4.0649255 -1.9984448 L 2.4438317 -1.9984448 C 2.343147 -1.9984448 2.2621911 -2.0794007 2.2621911 -2.1800854 L 2.2621911 -3.8226635 C 2.2621911 -3.9233482 2.343147 -4.0043041 2.4438317 -4.0043041 L 4.0649255 -4.0043041 C 4.1593174 -4.0043041 4.2372922 -3.9340615 4.2465661 -3.8421948 z "
       transform="rotate(90)" /></g></svg>
