{
	"asset":{
		"generator":"Khronos glTF Blender I/O v4.0.44",
		"version":"2.0"
	},
	"scene":0,
	"scenes":[
		{
			"name":"Scene",
			"nodes":[
				0,
				1,
				2,
				3,
				4,
				5
			]
		}
	],
	"nodes":[
		{
			"mesh":0,
			"name":"outside"
		},
		{
			"mesh":1,
			"name":"flower"
		},
		{
			"mesh":2,
			"name":"ring"
		},
		{
			"mesh":3,
			"name":"separator"
		},
		{
			"mesh":4,
			"name":"core"
		},
		{
			"mesh":5,
			"name":"top_ring"
		}
	],
	"materials":[
		{
			"doubleSided":true,
			"name":"top",
			"pbrMetallicRoughness":{
				"baseColorFactor":[
					0.06303029507398605,
					0.06303029507398605,
					0.06303029507398605,
					1
				],
				"metallicFactor":0.8924731016159058,
				"roughnessFactor":0.5
			}
		},
		{
			"doubleSided":true,
			"name":"flower",
			"pbrMetallicRoughness":{
				"baseColorFactor":[
					0.4793205261230469,
					0.39435356855392456,
					0.29876890778541565,
					1
				],
				"metallicFactor":0.9959999918937683,
				"roughnessFactor":0.3010752201080322
			}
		},
		{
			"doubleSided":true,
			"name":"strip",
			"pbrMetallicRoughness":{
				"baseColorFactor":[
					0.10653750598430634,
					0.013988979160785675,
					0.2572891116142273,
					1
				],
				"metallicFactor":0,
				"roughnessFactor":0.20984455943107605
			}
		},
		{
			"doubleSided":true,
			"name":"bottom",
			"pbrMetallicRoughness":{
				"baseColorFactor":[
					0.32255005836486816,
					0.16600753366947174,
					0.6652543544769287,
					1
				],
				"metallicFactor":0.009999999776482582,
				"roughnessFactor":0.4440000057220459
			}
		},
		{
			"doubleSided":true,
			"name":"strip",
			"pbrMetallicRoughness":{
				"baseColorFactor":[
					0.10653750598430634,
					0.013988979160785675,
					0.2572891116142273,
					1
				],
				"metallicFactor":0,
				"roughnessFactor":0.20984455943107605
			}
		},
		{
			"doubleSided":true,
			"name":"plasma",
			"pbrMetallicRoughness":{
				"baseColorFactor":[
					0.612658679485321,
					0.017261484637856483,
					0.7999995350837708,
					0.10000000149011612
				],
				"metallicFactor":0,
				"roughnessFactor":0.5
			}
		}
	],
	"meshes":[
		{
			"name":"Mesh",
			"primitives":[
				{
					"attributes":{
						"COLOR_0":0,
						"POSITION":1,
						"NORMAL":2,
						"TEXCOORD_0":3
					},
					"indices":4,
					"material":0
				},
				{
					"attributes":{
						"COLOR_0":5,
						"POSITION":6,
						"NORMAL":7,
						"TEXCOORD_0":8
					},
					"indices":9,
					"material":1
				},
				{
					"attributes":{
						"COLOR_0":10,
						"POSITION":11,
						"NORMAL":12,
						"TEXCOORD_0":13
					},
					"indices":14,
					"material":0
				},
				{
					"attributes":{
						"COLOR_0":15,
						"POSITION":16,
						"NORMAL":17,
						"TEXCOORD_0":18
					},
					"indices":19,
					"material":2
				},
				{
					"attributes":{
						"COLOR_0":20,
						"POSITION":21,
						"NORMAL":22,
						"TEXCOORD_0":23
					},
					"indices":24,
					"material":3
				}
			]
		},
		{
			"name":"Cylinder.001",
			"primitives":[
				{
					"attributes":{
						"COLOR_0":25,
						"POSITION":26,
						"NORMAL":27,
						"TEXCOORD_0":28
					},
					"indices":29,
					"material":1
				}
			]
		},
		{
			"name":"Mesh",
			"primitives":[
				{
					"attributes":{
						"COLOR_0":30,
						"POSITION":31,
						"NORMAL":32,
						"TEXCOORD_0":33
					},
					"indices":34,
					"material":0
				}
			]
		},
		{
			"name":"Mesh",
			"primitives":[
				{
					"attributes":{
						"COLOR_0":35,
						"POSITION":36,
						"NORMAL":37,
						"TEXCOORD_0":38
					},
					"indices":34,
					"material":1
				}
			]
		},
		{
			"name":"Sphere",
			"primitives":[
				{
					"attributes":{
						"COLOR_0":39,
						"POSITION":40,
						"NORMAL":41,
						"TEXCOORD_0":42
					},
					"indices":43,
					"material":4
				}
			]
		},
		{
			"name":"Torus.004",
			"primitives":[
				{
					"attributes":{
						"COLOR_0":44,
						"POSITION":45,
						"NORMAL":46,
						"TEXCOORD_0":47
					},
					"indices":48,
					"material":5
				}
			]
		}
	],
	"accessors":[
		{
			"bufferView":0,
			"componentType":5126,
			"count":5664,
			"type":"VEC4"
		},
		{
			"bufferView":1,
			"componentType":5126,
			"count":5664,
			"max":[
				0.6356402635574341,
				-0.05385162681341171,
				0.7119536995887756
			],
			"min":[
				-0.6356402635574341,
				-0.09877706319093704,
				-0.7119536995887756
			],
			"type":"VEC3"
		},
		{
			"bufferView":2,
			"componentType":5126,
			"count":5664,
			"type":"VEC3"
		},
		{
			"bufferView":3,
			"componentType":5126,
			"count":5664,
			"type":"VEC2"
		},
		{
			"bufferView":4,
			"componentType":5123,
			"count":32832,
			"type":"SCALAR"
		},
		{
			"bufferView":5,
			"componentType":5126,
			"count":2496,
			"type":"VEC4"
		},
		{
			"bufferView":6,
			"componentType":5126,
			"count":2496,
			"max":[
				0.47084569931030273,
				-0.1489401012659073,
				0.47084563970565796
			],
			"min":[
				-0.47084569931030273,
				-0.1981370747089386,
				-0.47084563970565796
			],
			"type":"VEC3"
		},
		{
			"bufferView":7,
			"componentType":5126,
			"count":2496,
			"type":"VEC3"
		},
		{
			"bufferView":8,
			"componentType":5126,
			"count":2496,
			"type":"VEC2"
		},
		{
			"bufferView":9,
			"componentType":5123,
			"count":13824,
			"type":"SCALAR"
		},
		{
			"bufferView":10,
			"componentType":5126,
			"count":8064,
			"type":"VEC4"
		},
		{
			"bufferView":11,
			"componentType":5126,
			"count":8064,
			"max":[
				0.7646029591560364,
				-0.03631790354847908,
				0.8580135107040405
			],
			"min":[
				-0.7646029591560364,
				-0.2259228378534317,
				-0.8580135107040405
			],
			"type":"VEC3"
		},
		{
			"bufferView":12,
			"componentType":5126,
			"count":8064,
			"type":"VEC3"
		},
		{
			"bufferView":13,
			"componentType":5126,
			"count":8064,
			"type":"VEC2"
		},
		{
			"bufferView":14,
			"componentType":5123,
			"count":46080,
			"type":"SCALAR"
		},
		{
			"bufferView":15,
			"componentType":5126,
			"count":2496,
			"type":"VEC4"
		},
		{
			"bufferView":16,
			"componentType":5126,
			"count":2496,
			"max":[
				0.6585316061973572,
				-0.0646992027759552,
				0.7369475364685059
			],
			"min":[
				-0.6585316061973572,
				-0.07240075618028641,
				-0.7369475364685059
			],
			"type":"VEC3"
		},
		{
			"bufferView":17,
			"componentType":5126,
			"count":2496,
			"type":"VEC3"
		},
		{
			"bufferView":18,
			"componentType":5126,
			"count":2496,
			"type":"VEC2"
		},
		{
			"bufferView":19,
			"componentType":5123,
			"count":13824,
			"type":"SCALAR"
		},
		{
			"bufferView":20,
			"componentType":5126,
			"count":10176,
			"type":"VEC4"
		},
		{
			"bufferView":21,
			"componentType":5126,
			"count":10176,
			"max":[
				0.6391178965568542,
				-0.1529027223587036,
				0.6391178369522095
			],
			"min":[
				-0.6391178965568542,
				-0.40227752923965454,
				-0.6391178369522095
			],
			"type":"VEC3"
		},
		{
			"bufferView":22,
			"componentType":5126,
			"count":10176,
			"type":"VEC3"
		},
		{
			"bufferView":23,
			"componentType":5126,
			"count":10176,
			"type":"VEC2"
		},
		{
			"bufferView":24,
			"componentType":5123,
			"count":59904,
			"type":"SCALAR"
		},
		{
			"bufferView":25,
			"componentType":5126,
			"count":91800,
			"type":"VEC4"
		},
		{
			"bufferView":26,
			"componentType":5126,
			"count":91800,
			"max":[
				0.4359615743160248,
				-0.14500212669372559,
				0.43596160411834717
			],
			"min":[
				-0.43596169352531433,
				-0.4398330748081207,
				-0.43596145510673523
			],
			"type":"VEC3"
		},
		{
			"bufferView":27,
			"componentType":5126,
			"count":91800,
			"type":"VEC3"
		},
		{
			"bufferView":28,
			"componentType":5126,
			"count":91800,
			"type":"VEC2"
		},
		{
			"bufferView":29,
			"componentType":5125,
			"count":525312,
			"type":"SCALAR"
		},
		{
			"bufferView":30,
			"componentType":5126,
			"count":2569,
			"type":"VEC4"
		},
		{
			"bufferView":31,
			"componentType":5126,
			"count":2569,
			"max":[
				0.21848373115062714,
				-0.49226242303848267,
				0.21848373115062714
			],
			"min":[
				-0.21848368644714355,
				-0.5189388990402222,
				-0.21848373115062714
			],
			"type":"VEC3"
		},
		{
			"bufferView":32,
			"componentType":5126,
			"count":2569,
			"type":"VEC3"
		},
		{
			"bufferView":33,
			"componentType":5126,
			"count":2569,
			"type":"VEC2"
		},
		{
			"bufferView":34,
			"componentType":5123,
			"count":13824,
			"type":"SCALAR"
		},
		{
			"bufferView":35,
			"componentType":5126,
			"count":2569,
			"type":"VEC4"
		},
		{
			"bufferView":36,
			"componentType":5126,
			"count":2569,
			"max":[
				0.2638397514820099,
				-0.4426482021808624,
				0.2638397216796875
			],
			"min":[
				-0.2638396918773651,
				-0.49286025762557983,
				-0.2638397216796875
			],
			"type":"VEC3"
		},
		{
			"bufferView":37,
			"componentType":5126,
			"count":2569,
			"type":"VEC3"
		},
		{
			"bufferView":38,
			"componentType":5126,
			"count":2569,
			"type":"VEC2"
		},
		{
			"bufferView":39,
			"componentType":5126,
			"count":559,
			"type":"VEC4"
		},
		{
			"bufferView":40,
			"componentType":5126,
			"count":559,
			"max":[
				0.13971379399299622,
				-0.4738730490207672,
				0.1397138088941574
			],
			"min":[
				-0.13971386849880219,
				-0.5690116882324219,
				-0.13971395790576935
			],
			"type":"VEC3"
		},
		{
			"bufferView":41,
			"componentType":5126,
			"count":559,
			"type":"VEC3"
		},
		{
			"bufferView":42,
			"componentType":5126,
			"count":559,
			"type":"VEC2"
		},
		{
			"bufferView":43,
			"componentType":5123,
			"count":2880,
			"type":"SCALAR"
		},
		{
			"bufferView":44,
			"componentType":5123,
			"count":1548,
			"normalized":true,
			"type":"VEC4"
		},
		{
			"bufferView":45,
			"componentType":5126,
			"count":1548,
			"max":[
				0.5719372630119324,
				-0.1618993580341339,
				0.5719372630119324
			],
			"min":[
				-0.5719372630119324,
				-0.1620195209980011,
				-0.5719372630119324
			],
			"type":"VEC3"
		},
		{
			"bufferView":46,
			"componentType":5126,
			"count":1548,
			"type":"VEC3"
		},
		{
			"bufferView":47,
			"componentType":5126,
			"count":1548,
			"type":"VEC2"
		},
		{
			"bufferView":48,
			"componentType":5123,
			"count":8448,
			"type":"SCALAR"
		}
	],
	"bufferViews":[
		{
			"buffer":0,
			"byteLength":90624,
			"byteOffset":0,
			"target":34962
		},
		{
			"buffer":0,
			"byteLength":67968,
			"byteOffset":90624,
			"target":34962
		},
		{
			"buffer":0,
			"byteLength":67968,
			"byteOffset":158592,
			"target":34962
		},
		{
			"buffer":0,
			"byteLength":45312,
			"byteOffset":226560,
			"target":34962
		},
		{
			"buffer":0,
			"byteLength":65664,
			"byteOffset":271872,
			"target":34963
		},
		{
			"buffer":0,
			"byteLength":39936,
			"byteOffset":337536,
			"target":34962
		},
		{
			"buffer":0,
			"byteLength":29952,
			"byteOffset":377472,
			"target":34962
		},
		{
			"buffer":0,
			"byteLength":29952,
			"byteOffset":407424,
			"target":34962
		},
		{
			"buffer":0,
			"byteLength":19968,
			"byteOffset":437376,
			"target":34962
		},
		{
			"buffer":0,
			"byteLength":27648,
			"byteOffset":457344,
			"target":34963
		},
		{
			"buffer":0,
			"byteLength":129024,
			"byteOffset":484992,
			"target":34962
		},
		{
			"buffer":0,
			"byteLength":96768,
			"byteOffset":614016,
			"target":34962
		},
		{
			"buffer":0,
			"byteLength":96768,
			"byteOffset":710784,
			"target":34962
		},
		{
			"buffer":0,
			"byteLength":64512,
			"byteOffset":807552,
			"target":34962
		},
		{
			"buffer":0,
			"byteLength":92160,
			"byteOffset":872064,
			"target":34963
		},
		{
			"buffer":0,
			"byteLength":39936,
			"byteOffset":964224,
			"target":34962
		},
		{
			"buffer":0,
			"byteLength":29952,
			"byteOffset":1004160,
			"target":34962
		},
		{
			"buffer":0,
			"byteLength":29952,
			"byteOffset":1034112,
			"target":34962
		},
		{
			"buffer":0,
			"byteLength":19968,
			"byteOffset":1064064,
			"target":34962
		},
		{
			"buffer":0,
			"byteLength":27648,
			"byteOffset":1084032,
			"target":34963
		},
		{
			"buffer":0,
			"byteLength":162816,
			"byteOffset":1111680,
			"target":34962
		},
		{
			"buffer":0,
			"byteLength":122112,
			"byteOffset":1274496,
			"target":34962
		},
		{
			"buffer":0,
			"byteLength":122112,
			"byteOffset":1396608,
			"target":34962
		},
		{
			"buffer":0,
			"byteLength":81408,
			"byteOffset":1518720,
			"target":34962
		},
		{
			"buffer":0,
			"byteLength":119808,
			"byteOffset":1600128,
			"target":34963
		},
		{
			"buffer":0,
			"byteLength":1468800,
			"byteOffset":1719936,
			"target":34962
		},
		{
			"buffer":0,
			"byteLength":1101600,
			"byteOffset":3188736,
			"target":34962
		},
		{
			"buffer":0,
			"byteLength":1101600,
			"byteOffset":4290336,
			"target":34962
		},
		{
			"buffer":0,
			"byteLength":734400,
			"byteOffset":5391936,
			"target":34962
		},
		{
			"buffer":0,
			"byteLength":2101248,
			"byteOffset":6126336,
			"target":34963
		},
		{
			"buffer":0,
			"byteLength":41104,
			"byteOffset":8227584,
			"target":34962
		},
		{
			"buffer":0,
			"byteLength":30828,
			"byteOffset":8268688,
			"target":34962
		},
		{
			"buffer":0,
			"byteLength":30828,
			"byteOffset":8299516,
			"target":34962
		},
		{
			"buffer":0,
			"byteLength":20552,
			"byteOffset":8330344,
			"target":34962
		},
		{
			"buffer":0,
			"byteLength":27648,
			"byteOffset":8350896,
			"target":34963
		},
		{
			"buffer":0,
			"byteLength":41104,
			"byteOffset":8378544,
			"target":34962
		},
		{
			"buffer":0,
			"byteLength":30828,
			"byteOffset":8419648,
			"target":34962
		},
		{
			"buffer":0,
			"byteLength":30828,
			"byteOffset":8450476,
			"target":34962
		},
		{
			"buffer":0,
			"byteLength":20552,
			"byteOffset":8481304,
			"target":34962
		},
		{
			"buffer":0,
			"byteLength":8944,
			"byteOffset":8501856,
			"target":34962
		},
		{
			"buffer":0,
			"byteLength":6708,
			"byteOffset":8510800,
			"target":34962
		},
		{
			"buffer":0,
			"byteLength":6708,
			"byteOffset":8517508,
			"target":34962
		},
		{
			"buffer":0,
			"byteLength":4472,
			"byteOffset":8524216,
			"target":34962
		},
		{
			"buffer":0,
			"byteLength":5760,
			"byteOffset":8528688,
			"target":34963
		},
		{
			"buffer":0,
			"byteLength":12384,
			"byteOffset":8534448,
			"target":34962
		},
		{
			"buffer":0,
			"byteLength":18576,
			"byteOffset":8546832,
			"target":34962
		},
		{
			"buffer":0,
			"byteLength":18576,
			"byteOffset":8565408,
			"target":34962
		},
		{
			"buffer":0,
			"byteLength":12384,
			"byteOffset":8583984,
			"target":34962
		},
		{
			"buffer":0,
			"byteLength":16896,
			"byteOffset":8596368,
			"target":34963
		}
	],
	"buffers":[
		{
			"byteLength":8613264,
			"uri":"models/orbiter32.bin"
		}
	]
}
