{
	"asset":{
		"generator":"Khronos glTF Blender I/O v4.0.44",
		"version":"2.0"
	},
	"scene":0,
	"scenes":[
		{
			"name":"Scene",
			"nodes":[
				0,
				1,
				2,
				3,
				4
			]
		}
	],
	"nodes":[
		{
			"mesh":0,
			"name":"outside"
		},
		{
			"mesh":1,
			"name":"flower"
		},
		{
			"mesh":2,
			"name":"ring"
		},
		{
			"mesh":3,
			"name":"separator"
		},
		{
			"mesh":4,
			"name":"core",
			"translation":[
				0,
				-0.048153676092624664,
				0
			]
		}
	],
	"materials": [
    {
      "doubleSided": true,
      "name": "top",
      "pbrMetallicRoughness": {
        "baseColorFactor": [
          0.06303029507398605,
          0.06303029507398605,
          0.06303029507398605,
          1
        ],
        "metallicFactor": 0.8924731016159058,
        "roughnessFactor": 0.5
      }
    },
    {
      "doubleSided": true,
      "name": "flower",
      "pbrMetallicRoughness": {
        "baseColorFactor": [
          0.4793205261230469,
          0.39435356855392456,
          0.29876890778541565,
          1
        ],
        "metallicFactor": 1,
        "roughnessFactor": 0.3010752201080322
      }
    },
    {
      "doubleSided": true,
      "name": "strip",
      "pbrMetallicRoughness": {
        "baseColorFactor": [
          0.10653750598430634,
          0.013988979160785675,
          0.2572891116142273,
          1
        ],
        "metallicFactor": 0,
        "roughnessFactor": 0.7,
        "emissiveFactor": [
          0.5,
          0.1,
          2.5
        ]
      }
    },
    {
      "doubleSided": true,
      "name": "ring",
      "pbrMetallicRoughness": {
        "baseColorFactor": [
          0.0,
          0.28510046005249023,
          0,
          1
        ],
        "emissiveFactor": [
          1.0,
          1.0,
          1.0
        ],
        "emissiveStrength": 1.0,
        "metallicFactor": 1,
        "roughnessFactor": 0.21735335886478424
      }
    },
    {
      "doubleSided": true,
      "name": "ring",
      "pbrMetallicRoughness": {
        "baseColorFactor": [
          0.0,
          0.2,
          0.5,
          1
        ],
        "emissiveFactor": [
          1.0,
          1.0,
          1.0
        ],
        "emissiveStrength": 1.0,
        "roughnessFactor": 0.21735335886478424
      }
    }
  ],
	"meshes":[
		{
			"name":"Mesh",
			"primitives":[
				{
					"attributes":{
						"COLOR_0":0,
						"POSITION":1,
						"NORMAL":2,
						"TEXCOORD_0":3
					},
					"indices":4,
					"material":0
				},
				{
					"attributes":{
						"COLOR_0":5,
						"POSITION":6,
						"NORMAL":7,
						"TEXCOORD_0":8
					},
					"indices":9,
					"material":1
				},
				{
					"attributes":{
						"COLOR_0":10,
						"POSITION":11,
						"NORMAL":12,
						"TEXCOORD_0":13
					},
					"indices":14,
					"material":0
				},
				{
					"attributes":{
						"COLOR_0":15,
						"POSITION":16,
						"NORMAL":17,
						"TEXCOORD_0":18
					},
					"indices":19,
					"material":2
				}
			]
		},
		{
			"name":"Cylinder.001",
			"primitives":[
				{
					"attributes":{
						"COLOR_0":20,
						"POSITION":21,
						"NORMAL":22,
						"TEXCOORD_0":23
					},
					"indices":24,
					"material":1
				}
			]
		},
		{
			"name":"Mesh",
			"primitives":[
				{
					"attributes":{
						"COLOR_0":25,
						"POSITION":26,
						"NORMAL":27,
						"TEXCOORD_0":28
					},
					"indices":29,
					"material":1
				}
			]
		},
		{
			"name":"Mesh",
			"primitives":[
				{
					"attributes":{
						"COLOR_0":30,
						"POSITION":31,
						"NORMAL":32,
						"TEXCOORD_0":33
					},
					"indices":29,
					"material":0
				}
			]
		},
		{
			"name":"Sphere",
			"primitives":[
				{
					"attributes":{
						"COLOR_0":34,
						"POSITION":35,
						"NORMAL":36,
						"TEXCOORD_0":37
					},
					"indices":38,
					"material":3
				}
			]
		}
	],
	"accessors":[
		{
			"bufferView":0,
			"componentType":5126,
			"count":8304,
			"type":"VEC4"
		},
		{
			"bufferView":1,
			"componentType":5126,
			"count":8304,
			"max":[
				0.6356402635574341,
				-0.05253100395202637,
				0.7119536995887756
			],
			"min":[
				-0.6356402635574341,
				-0.5013418793678284,
				-0.7119536995887756
			],
			"type":"VEC3"
		},
		{
			"bufferView":2,
			"componentType":5126,
			"count":8304,
			"type":"VEC3"
		},
		{
			"bufferView":3,
			"componentType":5126,
			"count":8304,
			"type":"VEC2"
		},
		{
			"bufferView":4,
			"componentType":5123,
			"count":45504,
			"type":"SCALAR"
		},
		{
			"bufferView":5,
			"componentType":5126,
			"count":2568,
			"type":"VEC4"
		},
		{
			"bufferView":6,
			"componentType":5126,
			"count":2568,
			"max":[
				0.5234345197677612,
				-0.13764318823814392,
				0.5234344601631165
			],
			"min":[
				-0.5234345197677612,
				-0.35348591208457947,
				-0.5234344601631165
			],
			"type":"VEC3"
		},
		{
			"bufferView":7,
			"componentType":5126,
			"count":2568,
			"type":"VEC3"
		},
		{
			"bufferView":8,
			"componentType":5126,
			"count":2568,
			"type":"VEC2"
		},
		{
			"bufferView":9,
			"componentType":5123,
			"count":13248,
			"type":"SCALAR"
		},
		{
			"bufferView":10,
			"componentType":5126,
			"count":6336,
			"type":"VEC4"
		},
		{
			"bufferView":11,
			"componentType":5126,
			"count":6336,
			"max":[
				0.7646029591560364,
				-0.03631790354847908,
				0.8580135107040405
			],
			"min":[
				-0.7646029591560364,
				-0.2259228378534317,
				-0.8580135107040405
			],
			"type":"VEC3"
		},
		{
			"bufferView":12,
			"componentType":5126,
			"count":6336,
			"type":"VEC3"
		},
		{
			"bufferView":13,
			"componentType":5126,
			"count":6336,
			"type":"VEC2"
		},
		{
			"bufferView":14,
			"componentType":5123,
			"count":36864,
			"type":"SCALAR"
		},
		{
			"bufferView":15,
			"componentType":5126,
			"count":4224,
			"type":"VEC4"
		},
		{
			"bufferView":16,
			"componentType":5126,
			"count":4224,
			"max":[
				0.6585316061973572,
				-0.0646992027759552,
				0.7369475364685059
			],
			"min":[
				-0.6585316061973572,
				-0.13654276728630066,
				-0.7369475364685059
			],
			"type":"VEC3"
		},
		{
			"bufferView":17,
			"componentType":5126,
			"count":4224,
			"type":"VEC3"
		},
		{
			"bufferView":18,
			"componentType":5126,
			"count":4224,
			"type":"VEC2"
		},
		{
			"bufferView":19,
			"componentType":5123,
			"count":23040,
			"type":"SCALAR"
		},
		{
			"bufferView":20,
			"componentType":5126,
			"count":91800,
			"type":"VEC4"
		},
		{
			"bufferView":21,
			"componentType":5126,
			"count":91800,
			"max":[
				0.4936126172542572,
				-0.12950000166893005,
				0.493612676858902
			],
			"min":[
				-0.49361276626586914,
				-0.4398330748081207,
				-0.49361249804496765
			],
			"type":"VEC3"
		},
		{
			"bufferView":22,
			"componentType":5126,
			"count":91800,
			"type":"VEC3"
		},
		{
			"bufferView":23,
			"componentType":5126,
			"count":91800,
			"type":"VEC2"
		},
		{
			"bufferView":24,
			"componentType":5125,
			"count":525312,
			"type":"SCALAR"
		},
		{
			"bufferView":25,
			"componentType":5126,
			"count":2569,
			"type":"VEC4"
		},
		{
			"bufferView":26,
			"componentType":5126,
			"count":2569,
			"max":[
				0.24798648059368134,
				-0.4895613193511963,
				0.24798648059368134
			],
			"min":[
				-0.24798646569252014,
				-0.5198400020599365,
				-0.24798649549484253
			],
			"type":"VEC3"
		},
		{
			"bufferView":27,
			"componentType":5126,
			"count":2569,
			"type":"VEC3"
		},
		{
			"bufferView":28,
			"componentType":5126,
			"count":2569,
			"type":"VEC2"
		},
		{
			"bufferView":29,
			"componentType":5123,
			"count":13824,
			"type":"SCALAR"
		},
		{
			"bufferView":30,
			"componentType":5126,
			"count":2569,
			"type":"VEC4"
		},
		{
			"bufferView":31,
			"componentType":5126,
			"count":2569,
			"max":[
				0.2638397514820099,
				-0.4426482021808624,
				0.2638397216796875
			],
			"min":[
				-0.2638396918773651,
				-0.49286025762557983,
				-0.2638397216796875
			],
			"type":"VEC3"
		},
		{
			"bufferView":32,
			"componentType":5126,
			"count":2569,
			"type":"VEC3"
		},
		{
			"bufferView":33,
			"componentType":5126,
			"count":2569,
			"type":"VEC2"
		},
		{
			"bufferView":34,
			"componentType":5126,
			"count":559,
			"type":"VEC4"
		},
		{
			"bufferView":35,
			"componentType":5126,
			"count":559,
			"max":[
				0.15952712297439575,
				-0.42201125621795654,
				0.15952713787555695
			],
			"min":[
				-0.15952718257904053,
				-0.5306417942047119,
				-0.15952728688716888
			],
			"type":"VEC3"
		},
		{
			"bufferView":36,
			"componentType":5126,
			"count":559,
			"type":"VEC3"
		},
		{
			"bufferView":37,
			"componentType":5126,
			"count":559,
			"type":"VEC2"
		},
		{
			"bufferView":38,
			"componentType":5123,
			"count":2880,
			"type":"SCALAR"
		}
	],
	"bufferViews":[
		{
			"buffer":0,
			"byteLength":132864,
			"byteOffset":0,
			"target":34962
		},
		{
			"buffer":0,
			"byteLength":99648,
			"byteOffset":132864,
			"target":34962
		},
		{
			"buffer":0,
			"byteLength":99648,
			"byteOffset":232512,
			"target":34962
		},
		{
			"buffer":0,
			"byteLength":66432,
			"byteOffset":332160,
			"target":34962
		},
		{
			"buffer":0,
			"byteLength":91008,
			"byteOffset":398592,
			"target":34963
		},
		{
			"buffer":0,
			"byteLength":41088,
			"byteOffset":489600,
			"target":34962
		},
		{
			"buffer":0,
			"byteLength":30816,
			"byteOffset":530688,
			"target":34962
		},
		{
			"buffer":0,
			"byteLength":30816,
			"byteOffset":561504,
			"target":34962
		},
		{
			"buffer":0,
			"byteLength":20544,
			"byteOffset":592320,
			"target":34962
		},
		{
			"buffer":0,
			"byteLength":26496,
			"byteOffset":612864,
			"target":34963
		},
		{
			"buffer":0,
			"byteLength":101376,
			"byteOffset":639360,
			"target":34962
		},
		{
			"buffer":0,
			"byteLength":76032,
			"byteOffset":740736,
			"target":34962
		},
		{
			"buffer":0,
			"byteLength":76032,
			"byteOffset":816768,
			"target":34962
		},
		{
			"buffer":0,
			"byteLength":50688,
			"byteOffset":892800,
			"target":34962
		},
		{
			"buffer":0,
			"byteLength":73728,
			"byteOffset":943488,
			"target":34963
		},
		{
			"buffer":0,
			"byteLength":67584,
			"byteOffset":1017216,
			"target":34962
		},
		{
			"buffer":0,
			"byteLength":50688,
			"byteOffset":1084800,
			"target":34962
		},
		{
			"buffer":0,
			"byteLength":50688,
			"byteOffset":1135488,
			"target":34962
		},
		{
			"buffer":0,
			"byteLength":33792,
			"byteOffset":1186176,
			"target":34962
		},
		{
			"buffer":0,
			"byteLength":46080,
			"byteOffset":1219968,
			"target":34963
		},
		{
			"buffer":0,
			"byteLength":1468800,
			"byteOffset":1266048,
			"target":34962
		},
		{
			"buffer":0,
			"byteLength":1101600,
			"byteOffset":2734848,
			"target":34962
		},
		{
			"buffer":0,
			"byteLength":1101600,
			"byteOffset":3836448,
			"target":34962
		},
		{
			"buffer":0,
			"byteLength":734400,
			"byteOffset":4938048,
			"target":34962
		},
		{
			"buffer":0,
			"byteLength":2101248,
			"byteOffset":5672448,
			"target":34963
		},
		{
			"buffer":0,
			"byteLength":41104,
			"byteOffset":7773696,
			"target":34962
		},
		{
			"buffer":0,
			"byteLength":30828,
			"byteOffset":7814800,
			"target":34962
		},
		{
			"buffer":0,
			"byteLength":30828,
			"byteOffset":7845628,
			"target":34962
		},
		{
			"buffer":0,
			"byteLength":20552,
			"byteOffset":7876456,
			"target":34962
		},
		{
			"buffer":0,
			"byteLength":27648,
			"byteOffset":7897008,
			"target":34963
		},
		{
			"buffer":0,
			"byteLength":41104,
			"byteOffset":7924656,
			"target":34962
		},
		{
			"buffer":0,
			"byteLength":30828,
			"byteOffset":7965760,
			"target":34962
		},
		{
			"buffer":0,
			"byteLength":30828,
			"byteOffset":7996588,
			"target":34962
		},
		{
			"buffer":0,
			"byteLength":20552,
			"byteOffset":8027416,
			"target":34962
		},
		{
			"buffer":0,
			"byteLength":8944,
			"byteOffset":8047968,
			"target":34962
		},
		{
			"buffer":0,
			"byteLength":6708,
			"byteOffset":8056912,
			"target":34962
		},
		{
			"buffer":0,
			"byteLength":6708,
			"byteOffset":8063620,
			"target":34962
		},
		{
			"buffer":0,
			"byteLength":4472,
			"byteOffset":8070328,
			"target":34962
		},
		{
			"buffer":0,
			"byteLength":5760,
			"byteOffset":8074800,
			"target":34963
		}
	],
	"buffers":[
		{
			"byteLength":8080560,
			"uri":"models/orbiter8.bin"
		}
	]
}
