{
	"asset":{
		"generator":"Khronos glTF Blender I/O v4.0.44",
		"version":"2.0"
	},
	"scene":0,
	"scenes":[
		{
			"name":"Scene",
			"nodes":[
				0,
				1,
				2,
				3,
				4,
				5
			]
		}
	],
	"nodes":[
		{
			"mesh":0,
			"name":"outside"
		},
		{
			"mesh":1,
			"name":"flower"
		},
		{
			"mesh":2,
			"name":"ring"
		},
		{
			"mesh":3,
			"name":"separator"
		},
		{
			"mesh":4,
			"name":"core",
			"translation":[
				0,
				-0.06148717552423477,
				0
			]
		},
		{
			"mesh":5,
			"name":"top_ring"
		}
	],
	"materials":[
		{
			"doubleSided":true,
			"name":"top",
			"pbrMetallicRoughness":{
				"baseColorFactor":[
					0.06303029507398605,
					0.06303029507398605,
					0.06303029507398605,
					1
				],
				"metallicFactor":0.8924731016159058,
				"roughnessFactor":0.5
			}
		},
		{
			"doubleSided":true,
			"name":"flower",
			"pbrMetallicRoughness":{
				"baseColorFactor":[
					0.4793205261230469,
					0.39435356855392456,
					0.29876890778541565,
					1
				],
				"metallicFactor":0.9959999918937683,
				"roughnessFactor":0.3010752201080322
			}
		},
		{
			"doubleSided":true,
			"name":"strip",
			"pbrMetallicRoughness":{
				"baseColorFactor":[
					0.10653750598430634,
					0.013988979160785675,
					0.2572891116142273,
					1
				],
				"metallicFactor":0,
				"roughnessFactor":0.20984455943107605
			}
		},
		{
			"doubleSided":true,
			"name":"bottom",
			"pbrMetallicRoughness":{
				"baseColorFactor":[
					0.0,
					0.0,
					0.0,
					1
				],
				"metallicFactor":0,
				"roughnessFactor":0.5
			}
		},
		{
			"doubleSided":true,
			"name":"strip",
			"pbrMetallicRoughness":{
				"baseColorFactor":[
					0.10653750598430634,
					0.013988979160785675,
					0.2572891116142273,
					1
				],
				"metallicFactor":0,
				"roughnessFactor":0.20984455943107605
			}
		},
		{
			"doubleSided":true,
			"name":"plasma",
			"pbrMetallicRoughness":{
				"baseColorFactor":[
					0.612658679485321,
					0.017261484637856483,
					0.7999995350837708,
					0.10000000149011612
				],
				"metallicFactor":0,
				"roughnessFactor":0.5
			}
		}
	],
	"meshes":[
		{
			"name":"Mesh",
			"primitives":[
				{
					"attributes":{
						"COLOR_0":0,
						"POSITION":1,
						"NORMAL":2,
						"TEXCOORD_0":3
					},
					"indices":4,
					"material":0
				},
				{
					"attributes":{
						"COLOR_0":5,
						"POSITION":6,
						"NORMAL":7,
						"TEXCOORD_0":8
					},
					"indices":9,
					"material":1
				},
				{
					"attributes":{
						"COLOR_0":10,
						"POSITION":11,
						"NORMAL":12,
						"TEXCOORD_0":13
					},
					"indices":14,
					"material":0
				},
				{
					"attributes":{
						"COLOR_0":15,
						"POSITION":16,
						"NORMAL":17,
						"TEXCOORD_0":18
					},
					"indices":19,
					"material":2
				},
				{
					"attributes":{
						"COLOR_0":20,
						"POSITION":21,
						"NORMAL":22,
						"TEXCOORD_0":23
					},
					"indices":24,
					"material":3
				}
			]
		},
		{
			"name":"Cylinder.001",
			"primitives":[
				{
					"attributes":{
						"COLOR_0":25,
						"POSITION":26,
						"NORMAL":27,
						"TEXCOORD_0":28
					},
					"indices":29,
					"material":1
				}
			]
		},
		{
			"name":"Mesh",
			"primitives":[
				{
					"attributes":{
						"COLOR_0":30,
						"POSITION":31,
						"NORMAL":32,
						"TEXCOORD_0":33
					},
					"indices":34,
					"material":0
				}
			]
		},
		{
			"name":"Mesh",
			"primitives":[
				{
					"attributes":{
						"COLOR_0":35,
						"POSITION":36,
						"NORMAL":37,
						"TEXCOORD_0":38
					},
					"indices":34,
					"material":1
				}
			]
		},
		{
			"name":"Sphere",
			"primitives":[
				{
					"attributes":{
						"COLOR_0":39,
						"POSITION":40,
						"NORMAL":41,
						"TEXCOORD_0":42
					},
					"indices":43,
					"material":4
				}
			]
		},
		{
			"name":"Torus.004",
			"primitives":[
				{
					"attributes":{
						"COLOR_0":44,
						"POSITION":45,
						"NORMAL":46,
						"TEXCOORD_0":47
					},
					"indices":48,
					"material":5
				}
			]
		}
	],
	"accessors":[
		{
			"bufferView":0,
			"componentType":5126,
			"count":14448,
			"type":"VEC4"
		},
		{
			"bufferView":1,
			"componentType":5126,
			"count":14448,
			"max":[
				0.6497684717178345,
				-0.05329831317067146,
				0.7119536995887756
			],
			"min":[
				-0.6497684121131897,
				-0.42961782217025757,
				-0.7119536995887756
			],
			"type":"VEC3"
		},
		{
			"bufferView":2,
			"componentType":5126,
			"count":14448,
			"type":"VEC3"
		},
		{
			"bufferView":3,
			"componentType":5126,
			"count":14448,
			"type":"VEC2"
		},
		{
			"bufferView":4,
			"componentType":5123,
			"count":78912,
			"type":"SCALAR"
		},
		{
			"bufferView":5,
			"componentType":5126,
			"count":6024,
			"type":"VEC4"
		},
		{
			"bufferView":6,
			"componentType":5126,
			"count":6024,
			"max":[
				0.6049677729606628,
				-0.10589947551488876,
				0.6049677133560181
			],
			"min":[
				-0.6049677729606628,
				-0.33336931467056274,
				-0.6049677133560181
			],
			"type":"VEC3"
		},
		{
			"bufferView":7,
			"componentType":5126,
			"count":6024,
			"type":"VEC3"
		},
		{
			"bufferView":8,
			"componentType":5126,
			"count":6024,
			"type":"VEC2"
		},
		{
			"bufferView":9,
			"componentType":5123,
			"count":31680,
			"type":"SCALAR"
		},
		{
			"bufferView":10,
			"componentType":5126,
			"count":14112,
			"type":"VEC4"
		},
		{
			"bufferView":11,
			"componentType":5126,
			"count":14112,
			"max":[
				0.7646029591560364,
				-0.03631790354847908,
				0.8580135107040405
			],
			"min":[
				-0.7646029591560364,
				-0.2687355577945709,
				-0.8580135107040405
			],
			"type":"VEC3"
		},
		{
			"bufferView":12,
			"componentType":5126,
			"count":14112,
			"type":"VEC3"
		},
		{
			"bufferView":13,
			"componentType":5126,
			"count":14112,
			"type":"VEC2"
		},
		{
			"bufferView":14,
			"componentType":5123,
			"count":78912,
			"type":"SCALAR"
		},
		{
			"bufferView":15,
			"componentType":5126,
			"count":2496,
			"type":"VEC4"
		},
		{
			"bufferView":16,
			"componentType":5126,
			"count":2496,
			"max":[
				0.6585316061973572,
				-0.0646992027759552,
				0.7369475364685059
			],
			"min":[
				-0.6585316061973572,
				-0.07240075618028641,
				-0.7369475364685059
			],
			"type":"VEC3"
		},
		{
			"bufferView":17,
			"componentType":5126,
			"count":2496,
			"type":"VEC3"
		},
		{
			"bufferView":18,
			"componentType":5126,
			"count":2496,
			"type":"VEC2"
		},
		{
			"bufferView":19,
			"componentType":5123,
			"count":13824,
			"type":"SCALAR"
		},
		{
			"bufferView":20,
			"componentType":5126,
			"count":5832,
			"type":"VEC4"
		},
		{
			"bufferView":21,
			"componentType":5126,
			"count":5832,
			"max":[
				0.6226211190223694,
				-0.16218695044517517,
				0.6226210594177246
			],
			"min":[
				-0.6226211190223694,
				-0.5296178460121155,
				-0.6226210594177246
			],
			"type":"VEC3"
		},
		{
			"bufferView":22,
			"componentType":5126,
			"count":5832,
			"type":"VEC3"
		},
		{
			"bufferView":23,
			"componentType":5126,
			"count":5832,
			"type":"VEC2"
		},
		{
			"bufferView":24,
			"componentType":5123,
			"count":31680,
			"type":"SCALAR"
		},
		{
			"bufferView":25,
			"componentType":5126,
			"count":91800,
			"type":"VEC4"
		},
		{
			"bufferView":26,
			"componentType":5126,
			"count":91800,
			"max":[
				0.4359615743160248,
				-0.14500212669372559,
				0.43596160411834717
			],
			"min":[
				-0.43596169352531433,
				-0.4398330748081207,
				-0.43596145510673523
			],
			"type":"VEC3"
		},
		{
			"bufferView":27,
			"componentType":5126,
			"count":91800,
			"type":"VEC3"
		},
		{
			"bufferView":28,
			"componentType":5126,
			"count":91800,
			"type":"VEC2"
		},
		{
			"bufferView":29,
			"componentType":5125,
			"count":525312,
			"type":"SCALAR"
		},
		{
			"bufferView":30,
			"componentType":5126,
			"count":2569,
			"type":"VEC4"
		},
		{
			"bufferView":31,
			"componentType":5126,
			"count":2569,
			"max":[
				0.21848373115062714,
				-0.49226242303848267,
				0.21848373115062714
			],
			"min":[
				-0.21848368644714355,
				-0.5189388990402222,
				-0.21848373115062714
			],
			"type":"VEC3"
		},
		{
			"bufferView":32,
			"componentType":5126,
			"count":2569,
			"type":"VEC3"
		},
		{
			"bufferView":33,
			"componentType":5126,
			"count":2569,
			"type":"VEC2"
		},
		{
			"bufferView":34,
			"componentType":5123,
			"count":13824,
			"type":"SCALAR"
		},
		{
			"bufferView":35,
			"componentType":5126,
			"count":2569,
			"type":"VEC4"
		},
		{
			"bufferView":36,
			"componentType":5126,
			"count":2569,
			"max":[
				0.2638397514820099,
				-0.4426482021808624,
				0.2638397216796875
			],
			"min":[
				-0.2638396918773651,
				-0.49286025762557983,
				-0.2638397216796875
			],
			"type":"VEC3"
		},
		{
			"bufferView":37,
			"componentType":5126,
			"count":2569,
			"type":"VEC3"
		},
		{
			"bufferView":38,
			"componentType":5126,
			"count":2569,
			"type":"VEC2"
		},
		{
			"bufferView":39,
			"componentType":5126,
			"count":559,
			"type":"VEC4"
		},
		{
			"bufferView":40,
			"componentType":5126,
			"count":559,
			"max":[
				0.13971379399299622,
				-0.41238588094711304,
				0.1397138088941574
			],
			"min":[
				-0.13971386849880219,
				-0.5075244903564453,
				-0.13971395790576935
			],
			"type":"VEC3"
		},
		{
			"bufferView":41,
			"componentType":5126,
			"count":559,
			"type":"VEC3"
		},
		{
			"bufferView":42,
			"componentType":5126,
			"count":559,
			"type":"VEC2"
		},
		{
			"bufferView":43,
			"componentType":5123,
			"count":2880,
			"type":"SCALAR"
		},
		{
			"bufferView":44,
			"componentType":5123,
			"count":2193,
			"normalized":true,
			"type":"VEC4"
		},
		{
			"bufferView":45,
			"componentType":5126,
			"count":2193,
			"max":[
				0.6005331873893738,
				-0.13461875915527344,
				0.6005331873893738
			],
			"min":[
				-0.6005331873893738,
				-0.16218231618404388,
				-0.6005331873893738
			],
			"type":"VEC3"
		},
		{
			"bufferView":46,
			"componentType":5126,
			"count":2193,
			"type":"VEC3"
		},
		{
			"bufferView":47,
			"componentType":5126,
			"count":2193,
			"type":"VEC2"
		},
		{
			"bufferView":48,
			"componentType":5123,
			"count":12288,
			"type":"SCALAR"
		}
	],
	"bufferViews":[
		{
			"buffer":0,
			"byteLength":231168,
			"byteOffset":0,
			"target":34962
		},
		{
			"buffer":0,
			"byteLength":173376,
			"byteOffset":231168,
			"target":34962
		},
		{
			"buffer":0,
			"byteLength":173376,
			"byteOffset":404544,
			"target":34962
		},
		{
			"buffer":0,
			"byteLength":115584,
			"byteOffset":577920,
			"target":34962
		},
		{
			"buffer":0,
			"byteLength":157824,
			"byteOffset":693504,
			"target":34963
		},
		{
			"buffer":0,
			"byteLength":96384,
			"byteOffset":851328,
			"target":34962
		},
		{
			"buffer":0,
			"byteLength":72288,
			"byteOffset":947712,
			"target":34962
		},
		{
			"buffer":0,
			"byteLength":72288,
			"byteOffset":1020000,
			"target":34962
		},
		{
			"buffer":0,
			"byteLength":48192,
			"byteOffset":1092288,
			"target":34962
		},
		{
			"buffer":0,
			"byteLength":63360,
			"byteOffset":1140480,
			"target":34963
		},
		{
			"buffer":0,
			"byteLength":225792,
			"byteOffset":1203840,
			"target":34962
		},
		{
			"buffer":0,
			"byteLength":169344,
			"byteOffset":1429632,
			"target":34962
		},
		{
			"buffer":0,
			"byteLength":169344,
			"byteOffset":1598976,
			"target":34962
		},
		{
			"buffer":0,
			"byteLength":112896,
			"byteOffset":1768320,
			"target":34962
		},
		{
			"buffer":0,
			"byteLength":157824,
			"byteOffset":1881216,
			"target":34963
		},
		{
			"buffer":0,
			"byteLength":39936,
			"byteOffset":2039040,
			"target":34962
		},
		{
			"buffer":0,
			"byteLength":29952,
			"byteOffset":2078976,
			"target":34962
		},
		{
			"buffer":0,
			"byteLength":29952,
			"byteOffset":2108928,
			"target":34962
		},
		{
			"buffer":0,
			"byteLength":19968,
			"byteOffset":2138880,
			"target":34962
		},
		{
			"buffer":0,
			"byteLength":27648,
			"byteOffset":2158848,
			"target":34963
		},
		{
			"buffer":0,
			"byteLength":93312,
			"byteOffset":2186496,
			"target":34962
		},
		{
			"buffer":0,
			"byteLength":69984,
			"byteOffset":2279808,
			"target":34962
		},
		{
			"buffer":0,
			"byteLength":69984,
			"byteOffset":2349792,
			"target":34962
		},
		{
			"buffer":0,
			"byteLength":46656,
			"byteOffset":2419776,
			"target":34962
		},
		{
			"buffer":0,
			"byteLength":63360,
			"byteOffset":2466432,
			"target":34963
		},
		{
			"buffer":0,
			"byteLength":1468800,
			"byteOffset":2529792,
			"target":34962
		},
		{
			"buffer":0,
			"byteLength":1101600,
			"byteOffset":3998592,
			"target":34962
		},
		{
			"buffer":0,
			"byteLength":1101600,
			"byteOffset":5100192,
			"target":34962
		},
		{
			"buffer":0,
			"byteLength":734400,
			"byteOffset":6201792,
			"target":34962
		},
		{
			"buffer":0,
			"byteLength":2101248,
			"byteOffset":6936192,
			"target":34963
		},
		{
			"buffer":0,
			"byteLength":41104,
			"byteOffset":9037440,
			"target":34962
		},
		{
			"buffer":0,
			"byteLength":30828,
			"byteOffset":9078544,
			"target":34962
		},
		{
			"buffer":0,
			"byteLength":30828,
			"byteOffset":9109372,
			"target":34962
		},
		{
			"buffer":0,
			"byteLength":20552,
			"byteOffset":9140200,
			"target":34962
		},
		{
			"buffer":0,
			"byteLength":27648,
			"byteOffset":9160752,
			"target":34963
		},
		{
			"buffer":0,
			"byteLength":41104,
			"byteOffset":9188400,
			"target":34962
		},
		{
			"buffer":0,
			"byteLength":30828,
			"byteOffset":9229504,
			"target":34962
		},
		{
			"buffer":0,
			"byteLength":30828,
			"byteOffset":9260332,
			"target":34962
		},
		{
			"buffer":0,
			"byteLength":20552,
			"byteOffset":9291160,
			"target":34962
		},
		{
			"buffer":0,
			"byteLength":8944,
			"byteOffset":9311712,
			"target":34962
		},
		{
			"buffer":0,
			"byteLength":6708,
			"byteOffset":9320656,
			"target":34962
		},
		{
			"buffer":0,
			"byteLength":6708,
			"byteOffset":9327364,
			"target":34962
		},
		{
			"buffer":0,
			"byteLength":4472,
			"byteOffset":9334072,
			"target":34962
		},
		{
			"buffer":0,
			"byteLength":5760,
			"byteOffset":9338544,
			"target":34963
		},
		{
			"buffer":0,
			"byteLength":17544,
			"byteOffset":9344304,
			"target":34962
		},
		{
			"buffer":0,
			"byteLength":26316,
			"byteOffset":9361848,
			"target":34962
		},
		{
			"buffer":0,
			"byteLength":26316,
			"byteOffset":9388164,
			"target":34962
		},
		{
			"buffer":0,
			"byteLength":17544,
			"byteOffset":9414480,
			"target":34962
		},
		{
			"buffer":0,
			"byteLength":24576,
			"byteOffset":9432024,
			"target":34963
		}
	],
	"buffers":[
		{
			"byteLength":9456600,
			"uri":"models/orbiter32.bin"
		}
	]
}
