<?xml version="1.0" encoding="UTF-8" standalone="no"?>
<svg
   width="11"
   height="11"
   viewBox="0 0 11 11"
   version="1.1"
   id="svg390"
   sodipodi:docname="add_instance.svg"
   inkscape:version="1.2.2 (b0a8486541, 2022-12-01)"
   xml:space="preserve"
   xmlns:inkscape="http://www.inkscape.org/namespaces/inkscape"
   xmlns:sodipodi="http://sodipodi.sourceforge.net/DTD/sodipodi-0.dtd"
   xmlns="http://www.w3.org/2000/svg"
   xmlns:svg="http://www.w3.org/2000/svg"><defs
     id="defs394" /><sodipodi:namedview
     id="namedview392"
     pagecolor="#505050"
     bordercolor="#eeeeee"
     borderopacity="1"
     inkscape:showpageshadow="0"
     inkscape:pageopacity="0"
     inkscape:pagecheckerboard="0"
     inkscape:deskcolor="#505050"
     showgrid="false"
     inkscape:zoom="93.363636"
     inkscape:cx="4.3753652"
     inkscape:cy="5.5214216"
     inkscape:window-width="2494"
     inkscape:window-height="1371"
     inkscape:window-x="66"
     inkscape:window-y="32"
     inkscape:window-maximized="1"
     inkscape:current-layer="svg390"><inkscape:grid
       type="xygrid"
       id="grid513" /></sodipodi:namedview><path
     style="fill:#ffffff"
     transform="translate(1.6,0)"
     d="M 2.9671322,1.2530471 A 0.83634742,0.83634742 0 0 0 2.9327485,2.4343694 L 5.7988668,5.4674937 2.9106446,8.5423699 a 0.83634742,0.83634742 0 0 0 0.036841,1.1813223 0.83634742,0.83634742 0 0 0 1.1837781,-0.036841 L 8.0976563,5.465038 4.1484543,1.2849749 A 0.83634742,0.83634742 0 0 0 2.9671322,1.2530471 Z"
     id="path388" /><g
     id="g250"
     transform="matrix(0.68995455,0,0,0.68995455,5.4737472,0.41676251)"><g
       id="g355"
       transform="translate(-8.0778714,1.823487)"><rect
         fill="#ffffff"
         x="5"
         y="2.5"
         width="1"
         height="6"
         rx="0.5"
         id="rect237" /><rect
         fill="#ffffff"
         x="2.5"
         y="5"
         width="6"
         height="1"
         rx="0.5"
         id="rect239" /></g></g></svg>
