<?xml version="1.0" encoding="UTF-8" standalone="no"?>
<svg
   width="11"
   height="11"
   viewBox="0 0 11 11"
   version="1.1"
   id="svg8"
   sodipodi:docname="dock_down.svg"
   xml:space="preserve"
   inkscape:version="1.2.2 (b0a8486541, 2022-12-01)"
   xmlns:inkscape="http://www.inkscape.org/namespaces/inkscape"
   xmlns:sodipodi="http://sodipodi.sourceforge.net/DTD/sodipodi-0.dtd"
   xmlns="http://www.w3.org/2000/svg"
   xmlns:svg="http://www.w3.org/2000/svg"><defs
     id="defs12" /><sodipodi:namedview
     id="namedview10"
     pagecolor="#505050"
     bordercolor="#eeeeee"
     borderopacity="1"
     inkscape:showpageshadow="0"
     inkscape:pageopacity="0"
     inkscape:pagecheckerboard="0"
     inkscape:deskcolor="#505050"
     showgrid="false"
     inkscape:zoom="4.1261288"
     inkscape:cx="-56.832933"
     inkscape:cy="29.446488"
     inkscape:window-width="1452"
     inkscape:window-height="1233"
     inkscape:window-x="740"
     inkscape:window-y="92"
     inkscape:window-maximized="0"
     inkscape:current-layer="svg8"><inkscape:grid
       type="xygrid"
       id="grid409" /></sodipodi:namedview><path
     fill="#ffffff"
     d="M 5.5,1 C 7.985,1 10,3.015 10,5.5 C 10,7.985 7.985,10 5.5,10 C 3.015,10 1,7.985 1,5.5 C 1,3.015 3.015,1 5.5,1 Z M 5.5,2 C 3.567,2 2,3.567 2,5.5 C 2,7.433 3.567,9 5.5,9 C 7.433,9 9,7.433 9,5.5 C 9,3.567 7.433,2 5.5,2 Z"
     id="path2" /><path
     style="fill:none;stroke:#ffffff;stroke-linecap:round;stroke-opacity:1"
     d="M 7.5239649,4.8607373 5.5214801,6.8917239 3.3406096,4.8422285"
     id="path12249"
     sodipodi:nodetypes="ccc" /></svg>
