{"asset": {"version": "2.0"}, "scene": 0, "scenes": [{"nodes": [0]}], "nodes": [{"mesh": 0, "name": "Cube"}], "meshes": [{"name": "Cube", "primitives": [{"attributes": {"POSITION": 0, "NORMAL": 1, "TEXCOORD_0": 2}, "indices": 3, "material": 0}]}], "materials": [{"name": "Cube", "pbrMetallicRoughness": {"baseColorFactor": [0.8, 0.85, 0.95, 1.0]}}], "buffers": [{"uri": "cube.bin", "byteLength": 840}], "bufferViews": [{"buffer": 0, "byteOffset": 0, "byteLength": 288, "target": 34962}, {"buffer": 0, "byteOffset": 288, "byteLength": 288, "target": 34962}, {"buffer": 0, "byteOffset": 576, "byteLength": 192, "target": 34962}, {"buffer": 0, "byteOffset": 768, "byteLength": 72, "target": 34963}], "accessors": [{"bufferView": 0, "componentType": 5126, "count": 24, "type": "VEC3", "min": [-1, -1, -1], "max": [1, 1, 1]}, {"bufferView": 1, "componentType": 5126, "count": 24, "type": "VEC3"}, {"bufferView": 2, "componentType": 5126, "count": 24, "type": "VEC2"}, {"bufferView": 3, "componentType": 5123, "count": 36, "type": "SCALAR"}]}